<svg xmlns="http://www.w3.org/2000/svg" id="graphic" fill="currentColor" font-family="Source Sans Pro" width="775" height="554"><g class="facets"><g class="facet" transform="translate(0,0)" opacity="1"><g class="fl-chart"><rect class="fl-chart-debug-rectangle" x="0" y="0" style="stroke-width: 1px; fill: none; display: none; stroke: red;" width="775" height="554"/><clipPath class="fl-data-clip-path" id="fl-chart-layout-1-clip-path"><rect x="26.161773681640625" y="6.75" width="745.3382263183594" height="500.1582550048828"/></clipPath><clipPath class="fl-grid-clip-path" id="fl-chart-layout-1-grid-clip-path"><rect x="25.161773681640625" y="5.75" width="747.3382263183594" height="502.1582550048828"/></clipPath><g class="fl-chart-background"><rect class="fl-chart-fill" x="26.161773681640625" y="6.75" width="745.3382263183594" height="500.1582550048828" fill="none"/><image class="fl-chart-image" x="26.161773681640625" y="6.75" width="745.3382263183594" height="500.1582550048828" preserveAspectRatio="none"/><rect class="fl-chart-interaction" x="26.161773681640625" y="6.75" width="745.3382263183594" height="500.1582550048828" style="opacity: 0;"/></g><g class="fl-data-background" clip-path="url(#fl-chart-layout-1-clip-path)"/><g class="fl-gridlines" clip-path="url(#fl-chart-layout-1-grid-clip-path)" style="pointer-events: none;"><g class="fl-gridlines-vertical"/><g class="fl-gridlines-horizontal"><line x1="26.161773681640625" x2="771.5" y1="506.9082550048828" y2="506.9082550048828" style="shape-rendering: crispedges; opacity: 1; stroke: rgb(238, 238, 238); stroke-width: 1;"/><line x1="26.161773681640625" x2="771.5" y1="451.33511555989577" y2="451.33511555989577" style="shape-rendering: crispedges; opacity: 1; stroke: rgb(238, 238, 238); stroke-width: 1;"/><line x1="26.161773681640625" x2="771.5" y1="395.76197611490886" y2="395.76197611490886" style="shape-rendering: crispedges; opacity: 1; stroke: rgb(238, 238, 238); stroke-width: 1;"/><line x1="26.161773681640625" x2="771.5" y1="340.1888366699219" y2="340.1888366699219" style="shape-rendering: crispedges; opacity: 1; stroke: rgb(238, 238, 238); stroke-width: 1;"/><line x1="26.161773681640625" x2="771.5" y1="284.6156972249349" y2="284.6156972249349" style="shape-rendering: crispedges; opacity: 1; stroke: rgb(238, 238, 238); stroke-width: 1;"/><line x1="26.161773681640625" x2="771.5" y1="229.04255777994788" y2="229.04255777994788" style="shape-rendering: crispedges; opacity: 1; stroke: rgb(238, 238, 238); stroke-width: 1;"/><line x1="26.161773681640625" x2="771.5" y1="173.46941833496095" y2="173.46941833496095" style="shape-rendering: crispedges; opacity: 1; stroke: rgb(238, 238, 238); stroke-width: 1;"/><line x1="26.161773681640625" x2="771.5" y1="117.89627888997394" y2="117.89627888997394" style="shape-rendering: crispedges; opacity: 1; stroke: rgb(238, 238, 238); stroke-width: 1;"/><line x1="26.161773681640625" x2="771.5" y1="62.323139444987" y2="62.323139444987" style="shape-rendering: crispedges; opacity: 1; stroke: rgb(238, 238, 238); stroke-width: 1;"/><line x1="26.161773681640625" x2="771.5" y1="6.75" y2="6.75" style="shape-rendering: crispedges; opacity: 1; stroke: rgb(238, 238, 238); stroke-width: 1;"/></g></g><g class="fl-axes"><g class="fl-x-axes"><g class="fl-axis fl-x-axis fl-bottom-axis"><g class="fl-axis-line"/><g class="fl-axis-ticks"><g transform="translate(51.00638198852539, 506.90826416015625)" style="opacity: 1;"><line y2="47.09174499511719" style="stroke: rgb(238, 238, 238); stroke-width: 1;"/><text text-anchor="end" transform="translate(0,5.6000000000000005) rotate(-90,0,0) translate(0,-3.78)" style="user-select: none; cursor: default; fill: rgb(170, 170, 170); font-size: 12.6px; font-weight: normal;"><tspan x="0" dy="0">2006-07</tspan></text></g><g transform="translate(100.69559478759766, 506.90826416015625)" style="opacity: 1;"><line y2="47.09174499511719" style="stroke: rgb(238, 238, 238); stroke-width: 1;"/><text text-anchor="end" transform="translate(0,5.6000000000000005) rotate(-90,0,0) translate(0,-3.78)" style="user-select: none; cursor: default; fill: rgb(170, 170, 170); font-size: 12.6px; font-weight: normal;"><tspan x="0" dy="0">2007-08</tspan></text></g><g transform="translate(150.3848114013672, 506.90826416015625)" style="opacity: 1;"><line y2="47.09174499511719" style="stroke: rgb(238, 238, 238); stroke-width: 1;"/><text text-anchor="end" transform="translate(0,5.6000000000000005) rotate(-90,0,0) translate(0,-3.78)" style="user-select: none; cursor: default; fill: rgb(170, 170, 170); font-size: 12.6px; font-weight: normal;"><tspan x="0" dy="0">2008-09</tspan></text></g><g transform="translate(200.0740203857422, 506.90826416015625)" style="opacity: 1;"><line y2="47.09174499511719" style="stroke: rgb(238, 238, 238); stroke-width: 1;"/><text text-anchor="end" transform="translate(0,5.6000000000000005) rotate(-90,0,0) translate(0,-3.78)" style="user-select: none; cursor: default; fill: rgb(170, 170, 170); font-size: 12.6px; font-weight: normal;"><tspan x="0" dy="0">2009-10</tspan></text></g><g transform="translate(249.76324462890625, 506.90826416015625)" style="opacity: 1;"><line y2="47.09174499511719" style="stroke: rgb(238, 238, 238); stroke-width: 1;"/><text text-anchor="end" transform="translate(0,5.6000000000000005) rotate(-90,0,0) translate(0,-3.78)" style="user-select: none; cursor: default; fill: rgb(170, 170, 170); font-size: 12.6px; font-weight: normal;"><tspan x="0" dy="0">2010-11</tspan></text></g><g transform="translate(299.45245361328125, 506.90826416015625)" style="opacity: 1;"><line y2="47.09174499511719" style="stroke: rgb(238, 238, 238); stroke-width: 1;"/><text text-anchor="end" transform="translate(0,5.6000000000000005) rotate(-90,0,0) translate(0,-3.78)" style="user-select: none; cursor: default; fill: rgb(170, 170, 170); font-size: 12.6px; font-weight: normal;"><tspan x="0" dy="0">2011-12</tspan></text></g><g transform="translate(349.14166259765625, 506.90826416015625)" style="opacity: 1;"><line y2="47.09174499511719" style="stroke: rgb(238, 238, 238); stroke-width: 1;"/><text text-anchor="end" transform="translate(0,5.6000000000000005) rotate(-90,0,0) translate(0,-3.78)" style="user-select: none; cursor: default; fill: rgb(170, 170, 170); font-size: 12.6px; font-weight: normal;"><tspan x="0" dy="0">2012-13</tspan></text></g><g transform="translate(398.8309020996094, 506.90826416015625)" style="opacity: 1;"><line y2="47.09174499511719" style="stroke: rgb(238, 238, 238); stroke-width: 1;"/><text text-anchor="end" transform="translate(0,5.6000000000000005) rotate(-90,0,0) translate(0,-3.78)" style="user-select: none; cursor: default; fill: rgb(170, 170, 170); font-size: 12.6px; font-weight: normal;"><tspan x="0" dy="0">2013-14</tspan></text></g><g transform="translate(448.5201110839844, 506.90826416015625)" style="opacity: 1;"><line y2="47.09174499511719" style="stroke: rgb(238, 238, 238); stroke-width: 1;"/><text text-anchor="end" transform="translate(0,5.6000000000000005) rotate(-90,0,0) translate(0,-3.78)" style="user-select: none; cursor: default; fill: rgb(170, 170, 170); font-size: 12.6px; font-weight: normal;"><tspan x="0" dy="0">2014-15</tspan></text></g><g transform="translate(498.2093200683594, 506.90826416015625)" style="opacity: 1;"><line y2="47.09174499511719" style="stroke: rgb(238, 238, 238); stroke-width: 1;"/><text text-anchor="end" transform="translate(0,5.6000000000000005) rotate(-90,0,0) translate(0,-3.78)" style="user-select: none; cursor: default; fill: rgb(170, 170, 170); font-size: 12.6px; font-weight: normal;"><tspan x="0" dy="0">2015-16</tspan></text></g><g transform="translate(547.8985595703125, 506.90826416015625)" style="opacity: 1;"><line y2="47.09174499511719" style="stroke: rgb(238, 238, 238); stroke-width: 1;"/><text text-anchor="end" transform="translate(0,5.6000000000000005) rotate(-90,0,0) translate(0,-3.78)" style="user-select: none; cursor: default; fill: rgb(170, 170, 170); font-size: 12.6px; font-weight: normal;"><tspan x="0" dy="0">2016-17</tspan></text></g><g transform="translate(597.5877685546875, 506.90826416015625)" style="opacity: 1;"><line y2="47.09174499511719" style="stroke: rgb(238, 238, 238); stroke-width: 1;"/><text text-anchor="end" transform="translate(0,5.6000000000000005) rotate(-90,0,0) translate(0,-3.78)" style="user-select: none; cursor: default; fill: rgb(170, 170, 170); font-size: 12.6px; font-weight: normal;"><tspan x="0" dy="0">2017-18</tspan></text></g><g transform="translate(647.2769775390625, 506.90826416015625)" style="opacity: 1;"><line y2="47.09174499511719" style="stroke: rgb(238, 238, 238); stroke-width: 1;"/><text text-anchor="end" transform="translate(0,5.6000000000000005) rotate(-90,0,0) translate(0,-3.78)" style="user-select: none; cursor: default; fill: rgb(170, 170, 170); font-size: 12.6px; font-weight: normal;"><tspan x="0" dy="0">2018-19</tspan></text></g><g transform="translate(696.9661865234375, 506.90826416015625)" style="opacity: 1;"><line y2="47.09174499511719" style="stroke: rgb(238, 238, 238); stroke-width: 1;"/><text text-anchor="end" transform="translate(0,5.6000000000000005) rotate(-90,0,0) translate(0,-3.78)" style="user-select: none; cursor: default; fill: rgb(170, 170, 170); font-size: 12.6px; font-weight: normal;"><tspan x="0" dy="0">2019-20</tspan></text></g><g transform="translate(746.6553955078125, 506.90826416015625)" style="opacity: 1;"><line y2="47.09174499511719" style="stroke: rgb(238, 238, 238); stroke-width: 1;"/><text text-anchor="end" transform="translate(0,5.6000000000000005) rotate(-90,0,0) translate(0,-3.78)" style="user-select: none; cursor: default; fill: rgb(170, 170, 170); font-size: 12.6px; font-weight: normal;"><tspan x="0" dy="0">2020-21</tspan></text></g></g><g class="fl-axis-title"/></g><g class="fl-axis fl-x-axis fl-top-axis"><g class="fl-axis-line"/><g class="fl-axis-ticks"/><g class="fl-axis-title"/></g></g><g class="fl-y-axes"><g class="fl-axis fl-y-axis fl-left-axis"><g class="fl-axis-line"><line x1="26.161773681640625" x2="26.161773681640625" y1="506.9082550048828" y2="6.75" style="shape-rendering: crispedges; stroke-linecap: square; stroke-width: 1; opacity: 1; stroke: rgb(238, 238, 238);"/></g><g class="fl-axis-ticks"><g transform="translate(26.161773681640625, 506.90826416015625)" style="opacity: 1;"><line x2="-7" style="stroke: rgb(238, 238, 238); stroke-width: 1;"/><text text-anchor="end" transform="translate(-10.5,4.158)" style="user-select: none; cursor: default; fill: rgb(170, 170, 170); font-size: 12.6px; font-weight: normal;"><tspan x="0" dy="0">0</tspan></text></g><g transform="translate(26.161773681640625, 62.32313919067383)" style="opacity: 1;"><line x2="-7" style="stroke: rgb(238, 238, 238); stroke-width: 1;"/><text text-anchor="end" transform="translate(-10.5,4.158)" style="user-select: none; cursor: default; fill: rgb(170, 170, 170); font-size: 12.6px; font-weight: normal;"><tspan x="0" dy="0">4</tspan></text></g><g transform="translate(26.161773681640625, 173.46942138671875)" style="opacity: 1;"><line x2="-7" style="stroke: rgb(238, 238, 238); stroke-width: 1;"/><text text-anchor="end" transform="translate(-10.5,4.158)" style="user-select: none; cursor: default; fill: rgb(170, 170, 170); font-size: 12.6px; font-weight: normal;"><tspan x="0" dy="0">3</tspan></text></g><g transform="translate(26.161773681640625, 284.6156921386719)" style="opacity: 1;"><line x2="-7" style="stroke: rgb(238, 238, 238); stroke-width: 1;"/><text text-anchor="end" transform="translate(-10.5,4.158)" style="user-select: none; cursor: default; fill: rgb(170, 170, 170); font-size: 12.6px; font-weight: normal;"><tspan x="0" dy="0">2</tspan></text></g><g transform="translate(26.161773681640625, 395.761962890625)" style="opacity: 1;"><line x2="-7" style="stroke: rgb(238, 238, 238); stroke-width: 1;"/><text text-anchor="end" transform="translate(-10.5,4.158)" style="user-select: none; cursor: default; fill: rgb(170, 170, 170); font-size: 12.6px; font-weight: normal;"><tspan x="0" dy="0">1</tspan></text></g><g transform="translate(26.161773681640625, 451.3351135253906)" style="opacity: 1;"><line x2="-7" style="stroke: rgb(238, 238, 238); stroke-width: 1;"/><text text-anchor="end" transform="translate(-10.5,4.158)" style="user-select: none; cursor: default; fill: rgb(170, 170, 170); font-size: 12.6px; font-weight: normal;"><tspan x="0" dy="0">0.5</tspan></text></g><g transform="translate(26.161773681640625, 6.75)" style="opacity: 1;"><line x2="-7" style="stroke: rgb(238, 238, 238); stroke-width: 1;"/><text text-anchor="end" transform="translate(-10.5,4.158)" style="user-select: none; cursor: default; fill: rgb(170, 170, 170); font-size: 12.6px; font-weight: normal;"><tspan x="0" dy="0">4.5</tspan></text></g><g transform="translate(26.161773681640625, 117.89627838134766)" style="opacity: 1;"><line x2="-7" style="stroke: rgb(238, 238, 238); stroke-width: 1;"/><text text-anchor="end" transform="translate(-10.5,4.158)" style="user-select: none; cursor: default; fill: rgb(170, 170, 170); font-size: 12.6px; font-weight: normal;"><tspan x="0" dy="0">3.5</tspan></text></g><g transform="translate(26.161773681640625, 229.0425567626953)" style="opacity: 1;"><line x2="-7" style="stroke: rgb(238, 238, 238); stroke-width: 1;"/><text text-anchor="end" transform="translate(-10.5,4.158)" style="user-select: none; cursor: default; fill: rgb(170, 170, 170); font-size: 12.6px; font-weight: normal;"><tspan x="0" dy="0">2.5</tspan></text></g><g transform="translate(26.161773681640625, 340.1888427734375)" style="opacity: 1;"><line x2="-7" style="stroke: rgb(238, 238, 238); stroke-width: 1;"/><text text-anchor="end" transform="translate(-10.5,4.158)" style="user-select: none; cursor: default; fill: rgb(170, 170, 170); font-size: 12.6px; font-weight: normal;"><tspan x="0" dy="0">1.5</tspan></text></g></g><g class="fl-axis-title"/></g><g class="fl-axis fl-y-axis fl-right-axis"><g class="fl-axis-line"/><g class="fl-axis-ticks"/><g class="fl-axis-title"/></g></g><g class="axis-highlights" style="opacity: 1;"/></g><g class="fl-data-foreground" clip-path="url(#fl-chart-layout-1-clip-path)"/></g><g class="facet-title" transform="translate(0, 0)"><rect class="facet-title-bg" height="0" fill="#eeeeee" x="26.161773681640625" clip-path="url(#facet-clip-0)"/><text class="facet-title-text" font-size="17.5" font-weight="bold" dx="0" dy="0" x="26.161773681640625" clip-path="url(#facet-clip-0)" opacity="0"/></g><clipPath class="facet-clip" id="facet-clip-0"><rect transform="translate(-10.5, -10.5)" width="792.5" height="561.5"/></clipPath></g></g><g class="annotations below"/><g id="areas"><g class="series" pointer-events="none"><path class="area" transform="translate(0,0)" fill-opacity="0.7" fill="#8a1d2e" clip-path="url(#clip-0-0)" d="M51.006381225585926,506.9082550048828C67.56945292154947,506.9082550048828,84.13252461751301,506.9082550048828,100.69559631347656,506.9082550048828C117.2586680094401,506.9082550048828,133.82173970540364,506.9082550048828,150.3848114013672,506.9082550048828C166.94788309733073,506.9082550048828,183.51095479329425,506.9082550048828,200.0740264892578,506.9082550048828C216.63709818522133,506.9082550048828,233.20016988118488,506.9082550048828,249.76324157714842,506.9082550048828C266.32631327311196,506.9082550048828,282.88938496907554,506.9082550048828,299.45245666503905,506.9082550048828C316.01552836100257,506.9082550048828,332.57860005696614,506.9082550048828,349.14167175292965,506.9082550048828C365.7047434488932,506.9082550048828,382.26781514485674,506.9082550048828,398.8308868408203,506.9082550048828C415.3939585367838,506.9082550048828,431.9570302327474,506.9082550048828,448.5201019287109,506.9082550048828C465.08317362467443,506.9082550048828,481.646245320638,506.9082550048828,498.2093170166015,506.9082550048828C514.7723887125651,506.9082550048828,531.3354604085287,506.9082550048828,547.8985321044922,506.9082550048828C564.4616038004557,506.9082550048828,581.0246754964193,506.9082550048828,597.5877471923827,506.9082550048828C614.1508188883463,506.9082550048828,630.7138905843099,506.9082550048828,647.2769622802734,506.9082550048828C663.8400339762369,506.9082550048828,680.4031056722005,506.9082550048828,696.9661773681639,506.9082550048828C713.5292490641275,506.9082550048828,730.0923207600911,506.9082550048828,746.6553924560546,506.9082550048828L746.6553924560546,14.530239522298228C730.0923207600911,66.213259206136,713.5292490641275,117.89627888997377,696.9661773681639,144.57138582356768C680.4031056722005,171.24649275716146,663.8400339762369,174.5808811238607,647.2769622802734,184.58404622395835C630.7138905843099,194.58721132405606,614.1508188883463,204.59037642415365,597.5877471923827,204.59037642415365C581.0246754964193,204.59037642415365,564.4616038004557,27.867792989095076,547.8985321044922,27.867792989095076C531.3354604085287,27.867792989095076,514.7723887125651,181.24965785725908,498.2093170166015,199.03306247965494C481.646245320638,216.81646710205078,465.08317362467443,213.85256633165147,448.5201019287109,225.7081694132487C431.9570302327474,237.56377249484592,415.3939585367838,259.05205308024085,398.8308868408203,270.16668096923826C382.26781514485674,281.28130885823566,365.7047434488932,292.39593674723307,349.14167175292965,292.39593674723307C332.57860005696614,292.39593674723307,316.01552836100257,266.27656120808916,299.45245666503905,251.2718135579427C282.88938496907554,236.2670659077962,266.32631327311196,202.36745084635416,249.76324157714842,202.36745084635416C233.20016988118488,202.36745084635416,216.63709818522133,231.0802395595974,200.0740264892578,243.4915740356445C183.51095479329425,255.9029085116916,166.94788309733073,254.6062019246419,150.3848114013672,276.83545770263675C133.82173970540364,299.0647134806316,117.2586680094401,395.76197611490886,100.69559631347656,395.76197611490886C84.13252461751301,395.76197611490886,67.56945292154947,384.0916168314616,51.006381225585926,372.4212575480143Z" clip-path-id="0-0"/></g></g><g id="lines"><g class="series"><clipPath id="clip-0-0"><rect width="745.3382263183594" x="26.161773681640625" y="3.9499999999999997" height="505.7582550048828"/></clipPath><path class="line" opacity="1" pointer-events="none" fill="none" stroke="#8a1d2e" stroke-width="2.8000000000000003" transform="translate(0,0)" clip-path="url(#clip-0-0)" clip-path-id="0-0" d="M51.006381225585926,372.4212575480143C67.56945292154947,384.0916168314616,84.13252461751301,395.76197611490886,100.69559631347656,395.76197611490886C117.2586680094401,395.76197611490886,133.82173970540364,299.0647134806316,150.3848114013672,276.83545770263675C166.94788309733073,254.6062019246419,183.51095479329425,255.9029085116916,200.0740264892578,243.4915740356445C216.63709818522133,231.0802395595974,233.20016988118488,202.36745084635416,249.76324157714842,202.36745084635416C266.32631327311196,202.36745084635416,282.88938496907554,236.2670659077962,299.45245666503905,251.2718135579427C316.01552836100257,266.27656120808916,332.57860005696614,292.39593674723307,349.14167175292965,292.39593674723307C365.7047434488932,292.39593674723307,382.26781514485674,281.28130885823566,398.8308868408203,270.16668096923826C415.3939585367838,259.05205308024085,431.9570302327474,237.56377249484592,448.5201019287109,225.7081694132487C465.08317362467443,213.85256633165147,481.646245320638,216.81646710205078,498.2093170166015,199.03306247965494C514.7723887125651,181.24965785725908,531.3354604085287,27.867792989095076,547.8985321044922,27.867792989095076C564.4616038004557,27.867792989095076,581.0246754964193,204.59037642415365,597.5877471923827,204.59037642415365C614.1508188883463,204.59037642415365,630.7138905843099,194.58721132405606,647.2769622802734,184.58404622395835C663.8400339762369,174.5808811238607,680.4031056722005,171.24649275716146,696.9661773681639,144.57138582356768C713.5292490641275,117.89627888997377,730.0923207600911,66.213259206136,746.6553924560546,14.530239522298228"/></g></g><g id="data-points"><g class="series" transform="translate(0,0)" clip-path="url(#facet-clip-0)"><path class="data-point" visibility="visible" fill="#ffffff" stroke="#8a1d2e" stroke-width="2.8000000000000003" data-type="point" transform="translate(0, 0)" d="M47.506381225585926,372.4212575480143A3.5,3.5,0,1,1,54.506381225585926,372.4212575480143A3.5,3.5,0,1,1,47.506381225585926,372.4212575480143Z" opacity="1" id="point-0-0"/><path class="data-point" visibility="visible" fill="#ffffff" stroke="#8a1d2e" stroke-width="2.8000000000000003" data-type="point" transform="translate(0, 0)" d="M97.19559631347656,395.76197611490886A3.5,3.5,0,1,1,104.19559631347656,395.76197611490886A3.5,3.5,0,1,1,97.19559631347656,395.76197611490886Z" opacity="1" id="point-0-1"/><path class="data-point" visibility="visible" fill="#ffffff" stroke="#8a1d2e" stroke-width="2.8000000000000003" data-type="point" transform="translate(0, 0)" d="M146.8848114013672,276.83545770263675A3.5,3.5,0,1,1,153.8848114013672,276.83545770263675A3.5,3.5,0,1,1,146.8848114013672,276.83545770263675Z" opacity="1" id="point-0-2"/><path class="data-point" visibility="visible" fill="#ffffff" stroke="#8a1d2e" stroke-width="2.8000000000000003" data-type="point" transform="translate(0, 0)" d="M196.5740264892578,243.4915740356445A3.5,3.5,0,1,1,203.5740264892578,243.4915740356445A3.5,3.5,0,1,1,196.5740264892578,243.4915740356445Z" opacity="1" id="point-0-3"/><path class="data-point" visibility="visible" fill="#ffffff" stroke="#8a1d2e" stroke-width="2.8000000000000003" data-type="point" transform="translate(0, 0)" d="M246.26324157714842,202.36745084635416A3.5,3.5,0,1,1,253.26324157714842,202.36745084635416A3.5,3.5,0,1,1,246.26324157714842,202.36745084635416Z" opacity="1" id="point-0-4"/><path class="data-point" visibility="visible" fill="#ffffff" stroke="#8a1d2e" stroke-width="2.8000000000000003" data-type="point" transform="translate(0, 0)" d="M295.95245666503905,251.2718135579427A3.5,3.5,0,1,1,302.95245666503905,251.2718135579427A3.5,3.5,0,1,1,295.95245666503905,251.2718135579427Z" opacity="1" id="point-0-5"/><path class="data-point" visibility="visible" fill="#ffffff" stroke="#8a1d2e" stroke-width="2.8000000000000003" data-type="point" transform="translate(0, 0)" d="M345.64167175292965,292.39593674723307A3.5,3.5,0,1,1,352.64167175292965,292.39593674723307A3.5,3.5,0,1,1,345.64167175292965,292.39593674723307Z" opacity="1" id="point-0-6"/><path class="data-point" visibility="visible" fill="#ffffff" stroke="#8a1d2e" stroke-width="2.8000000000000003" data-type="point" transform="translate(0, 0)" d="M395.3308868408203,270.16668096923826A3.5,3.5,0,1,1,402.3308868408203,270.16668096923826A3.5,3.5,0,1,1,395.3308868408203,270.16668096923826Z" opacity="1" id="point-0-7"/><path class="data-point" visibility="visible" fill="#ffffff" stroke="#8a1d2e" stroke-width="2.8000000000000003" data-type="point" transform="translate(0, 0)" d="M445.0201019287109,225.7081694132487A3.5,3.5,0,1,1,452.0201019287109,225.7081694132487A3.5,3.5,0,1,1,445.0201019287109,225.7081694132487Z" opacity="1" id="point-0-8"/><path class="data-point" visibility="visible" fill="#ffffff" stroke="#8a1d2e" stroke-width="2.8000000000000003" data-type="point" transform="translate(0, 0)" d="M494.7093170166015,199.03306247965494A3.5,3.5,0,1,1,501.7093170166015,199.03306247965494A3.5,3.5,0,1,1,494.7093170166015,199.03306247965494Z" opacity="1" id="point-0-9"/><path class="data-point" visibility="visible" fill="#ffffff" stroke="#8a1d2e" stroke-width="2.8000000000000003" data-type="point" transform="translate(0, 0)" d="M544.3985321044922,27.867792989095076A3.5,3.5,0,1,1,551.3985321044922,27.867792989095076A3.5,3.5,0,1,1,544.3985321044922,27.867792989095076Z" opacity="1" id="point-0-10"/><path class="data-point" visibility="visible" fill="#ffffff" stroke="#8a1d2e" stroke-width="2.8000000000000003" data-type="point" transform="translate(0, 0)" d="M594.0877471923827,204.59037642415365A3.5,3.5,0,1,1,601.0877471923827,204.59037642415365A3.5,3.5,0,1,1,594.0877471923827,204.59037642415365Z" opacity="1" id="point-0-11"/><path class="data-point" visibility="visible" fill="#ffffff" stroke="#8a1d2e" stroke-width="2.8000000000000003" data-type="point" transform="translate(0, 0)" d="M643.7769622802734,184.58404622395835A3.5,3.5,0,1,1,650.7769622802734,184.58404622395835A3.5,3.5,0,1,1,643.7769622802734,184.58404622395835Z" opacity="1" id="point-0-12"/><path class="data-point" visibility="visible" fill="#ffffff" stroke="#8a1d2e" stroke-width="2.8000000000000003" data-type="point" transform="translate(0, 0)" d="M693.4661773681639,144.57138582356768A3.5,3.5,0,1,1,700.4661773681639,144.57138582356768A3.5,3.5,0,1,1,693.4661773681639,144.57138582356768Z" opacity="1" id="point-0-13"/><path class="data-point" visibility="visible" fill="#ffffff" stroke="#8a1d2e" stroke-width="2.8000000000000003" data-type="point" transform="translate(0, 0)" d="M743.1553924560546,14.530239522298228A3.5,3.5,0,1,1,750.1553924560546,14.530239522298228A3.5,3.5,0,1,1,743.1553924560546,14.530239522298228Z" opacity="1" id="point-0-14"/></g></g><g id="lines-secondary"/><g id="data-point-labels"><g class="series" transform="translate(0,0)" clip-path="url(#facet-clip-0)"/></g><g id="stack-labels"/><g class="annotations above"/></svg>