<svg xmlns="http://www.w3.org/2000/svg" id="graphic" fill="currentColor" font-family="Source Sans Pro" width="775" height="554"><g class="facets"><g class="facet" transform="translate(0,0)" opacity="1"><g class="fl-chart"><rect class="fl-chart-debug-rectangle" x="0" y="0" style="stroke-width: 1px; fill: none; display: none; stroke: red;" width="775" height="554"/><clipPath class="fl-data-clip-path" id="fl-chart-layout-1-clip-path"><rect x="60.61012268066406" y="6.75" width="710.8898773193359" height="500.1582550048828"/></clipPath><clipPath class="fl-grid-clip-path" id="fl-chart-layout-1-grid-clip-path"><rect x="59.61012268066406" y="5.75" width="712.8898773193359" height="502.1582550048828"/></clipPath><g class="fl-chart-background"><rect class="fl-chart-fill" x="60.61012268066406" y="6.75" width="710.8898773193359" height="500.1582550048828" fill="none"/><image class="fl-chart-image" x="60.61012268066406" y="6.75" width="710.8898773193359" height="500.1582550048828" preserveAspectRatio="none"/><rect class="fl-chart-interaction" x="60.61012268066406" y="6.75" width="710.8898773193359" height="500.1582550048828" style="opacity: 0;"/></g><g class="fl-data-background" clip-path="url(#fl-chart-layout-1-clip-path)"/><g class="fl-gridlines" clip-path="url(#fl-chart-layout-1-grid-clip-path)" style="pointer-events: none;"><g class="fl-gridlines-vertical"/><g class="fl-gridlines-horizontal"><line x1="60.61012268066406" x2="771.5" y1="506.9082550048828" y2="506.9082550048828" style="shape-rendering: crispedges; opacity: 1; stroke: rgb(238, 238, 238); stroke-width: 1;"/><line x1="60.61012268066406" x2="771.5" y1="456.89242950439456" y2="456.89242950439456" style="shape-rendering: crispedges; opacity: 1; stroke: rgb(238, 238, 238); stroke-width: 1;"/><line x1="60.61012268066406" x2="771.5" y1="406.87660400390627" y2="406.87660400390627" style="shape-rendering: crispedges; opacity: 1; stroke: rgb(238, 238, 238); stroke-width: 1;"/><line x1="60.61012268066406" x2="771.5" y1="356.8607785034179" y2="356.8607785034179" style="shape-rendering: crispedges; opacity: 1; stroke: rgb(238, 238, 238); stroke-width: 1;"/><line x1="60.61012268066406" x2="771.5" y1="306.8449530029296" y2="306.8449530029296" style="shape-rendering: crispedges; opacity: 1; stroke: rgb(238, 238, 238); stroke-width: 1;"/><line x1="60.61012268066406" x2="771.5" y1="256.8291275024414" y2="256.8291275024414" style="shape-rendering: crispedges; opacity: 1; stroke: rgb(238, 238, 238); stroke-width: 1;"/><line x1="60.61012268066406" x2="771.5" y1="206.81330200195313" y2="206.81330200195313" style="shape-rendering: crispedges; opacity: 1; stroke: rgb(238, 238, 238); stroke-width: 1;"/><line x1="60.61012268066406" x2="771.5" y1="156.79747650146484" y2="156.79747650146484" style="shape-rendering: crispedges; opacity: 1; stroke: rgb(238, 238, 238); stroke-width: 1;"/><line x1="60.61012268066406" x2="771.5" y1="106.78165100097654" y2="106.78165100097654" style="shape-rendering: crispedges; opacity: 1; stroke: rgb(238, 238, 238); stroke-width: 1;"/><line x1="60.61012268066406" x2="771.5" y1="56.76582550048827" y2="56.76582550048827" style="shape-rendering: crispedges; opacity: 1; stroke: rgb(238, 238, 238); stroke-width: 1;"/><line x1="60.61012268066406" x2="771.5" y1="6.75" y2="6.75" style="shape-rendering: crispedges; opacity: 1; stroke: rgb(238, 238, 238); stroke-width: 1;"/></g></g><g class="fl-axes"><g class="fl-x-axes"><g class="fl-axis fl-x-axis fl-bottom-axis"><g class="fl-axis-line"/><g class="fl-axis-ticks"><g transform="translate(84.30644989013672, 506.90826416015625)" style="opacity: 1;"><line y2="47.09174499511719" style="stroke: rgb(238, 238, 238); stroke-width: 1;"/><text text-anchor="end" transform="translate(0,5.6000000000000005) rotate(-90,0,0) translate(0,-3.78)" style="user-select: none; cursor: default; fill: rgb(170, 170, 170); font-size: 12.6px; font-weight: normal;"><tspan x="0" dy="0">2006-07</tspan></text></g><g transform="translate(131.69911193847656, 506.90826416015625)" style="opacity: 1;"><line y2="47.09174499511719" style="stroke: rgb(238, 238, 238); stroke-width: 1;"/><text text-anchor="end" transform="translate(0,5.6000000000000005) rotate(-90,0,0) translate(0,-3.78)" style="user-select: none; cursor: default; fill: rgb(170, 170, 170); font-size: 12.6px; font-weight: normal;"><tspan x="0" dy="0">2007-08</tspan></text></g><g transform="translate(179.09176635742188, 506.90826416015625)" style="opacity: 1;"><line y2="47.09174499511719" style="stroke: rgb(238, 238, 238); stroke-width: 1;"/><text text-anchor="end" transform="translate(0,5.6000000000000005) rotate(-90,0,0) translate(0,-3.78)" style="user-select: none; cursor: default; fill: rgb(170, 170, 170); font-size: 12.6px; font-weight: normal;"><tspan x="0" dy="0">2008-09</tspan></text></g><g transform="translate(226.4844207763672, 506.90826416015625)" style="opacity: 1;"><line y2="47.09174499511719" style="stroke: rgb(238, 238, 238); stroke-width: 1;"/><text text-anchor="end" transform="translate(0,5.6000000000000005) rotate(-90,0,0) translate(0,-3.78)" style="user-select: none; cursor: default; fill: rgb(170, 170, 170); font-size: 12.6px; font-weight: normal;"><tspan x="0" dy="0">2009-10</tspan></text></g><g transform="translate(273.8770751953125, 506.90826416015625)" style="opacity: 1;"><line y2="47.09174499511719" style="stroke: rgb(238, 238, 238); stroke-width: 1;"/><text text-anchor="end" transform="translate(0,5.6000000000000005) rotate(-90,0,0) translate(0,-3.78)" style="user-select: none; cursor: default; fill: rgb(170, 170, 170); font-size: 12.6px; font-weight: normal;"><tspan x="0" dy="0">2010-11</tspan></text></g><g transform="translate(321.2697448730469, 506.90826416015625)" style="opacity: 1;"><line y2="47.09174499511719" style="stroke: rgb(238, 238, 238); stroke-width: 1;"/><text text-anchor="end" transform="translate(0,5.6000000000000005) rotate(-90,0,0) translate(0,-3.78)" style="user-select: none; cursor: default; fill: rgb(170, 170, 170); font-size: 12.6px; font-weight: normal;"><tspan x="0" dy="0">2011-12</tspan></text></g><g transform="translate(368.66241455078125, 506.90826416015625)" style="opacity: 1;"><line y2="47.09174499511719" style="stroke: rgb(238, 238, 238); stroke-width: 1;"/><text text-anchor="end" transform="translate(0,5.6000000000000005) rotate(-90,0,0) translate(0,-3.78)" style="user-select: none; cursor: default; fill: rgb(170, 170, 170); font-size: 12.6px; font-weight: normal;"><tspan x="0" dy="0">2012-13</tspan></text></g><g transform="translate(416.0550537109375, 506.90826416015625)" style="opacity: 1;"><line y2="47.09174499511719" style="stroke: rgb(238, 238, 238); stroke-width: 1;"/><text text-anchor="end" transform="translate(0,5.6000000000000005) rotate(-90,0,0) translate(0,-3.78)" style="user-select: none; cursor: default; fill: rgb(170, 170, 170); font-size: 12.6px; font-weight: normal;"><tspan x="0" dy="0">2013-14</tspan></text></g><g transform="translate(463.4477233886719, 506.90826416015625)" style="opacity: 1;"><line y2="47.09174499511719" style="stroke: rgb(238, 238, 238); stroke-width: 1;"/><text text-anchor="end" transform="translate(0,5.6000000000000005) rotate(-90,0,0) translate(0,-3.78)" style="user-select: none; cursor: default; fill: rgb(170, 170, 170); font-size: 12.6px; font-weight: normal;"><tspan x="0" dy="0">2014-15</tspan></text></g><g transform="translate(510.84039306640625, 506.90826416015625)" style="opacity: 1;"><line y2="47.09174499511719" style="stroke: rgb(238, 238, 238); stroke-width: 1;"/><text text-anchor="end" transform="translate(0,5.6000000000000005) rotate(-90,0,0) translate(0,-3.78)" style="user-select: none; cursor: default; fill: rgb(170, 170, 170); font-size: 12.6px; font-weight: normal;"><tspan x="0" dy="0">2015-16</tspan></text></g><g transform="translate(558.2330322265625, 506.90826416015625)" style="opacity: 1;"><line y2="47.09174499511719" style="stroke: rgb(238, 238, 238); stroke-width: 1;"/><text text-anchor="end" transform="translate(0,5.6000000000000005) rotate(-90,0,0) translate(0,-3.78)" style="user-select: none; cursor: default; fill: rgb(170, 170, 170); font-size: 12.6px; font-weight: normal;"><tspan x="0" dy="0">2016-17</tspan></text></g><g transform="translate(605.6256713867188, 506.90826416015625)" style="opacity: 1;"><line y2="47.09174499511719" style="stroke: rgb(238, 238, 238); stroke-width: 1;"/><text text-anchor="end" transform="translate(0,5.6000000000000005) rotate(-90,0,0) translate(0,-3.78)" style="user-select: none; cursor: default; fill: rgb(170, 170, 170); font-size: 12.6px; font-weight: normal;"><tspan x="0" dy="0">2017-18</tspan></text></g><g transform="translate(653.0183715820312, 506.90826416015625)" style="opacity: 1;"><line y2="47.09174499511719" style="stroke: rgb(238, 238, 238); stroke-width: 1;"/><text text-anchor="end" transform="translate(0,5.6000000000000005) rotate(-90,0,0) translate(0,-3.78)" style="user-select: none; cursor: default; fill: rgb(170, 170, 170); font-size: 12.6px; font-weight: normal;"><tspan x="0" dy="0">2018-19</tspan></text></g><g transform="translate(700.4110107421875, 506.90826416015625)" style="opacity: 1;"><line y2="47.09174499511719" style="stroke: rgb(238, 238, 238); stroke-width: 1;"/><text text-anchor="end" transform="translate(0,5.6000000000000005) rotate(-90,0,0) translate(0,-3.78)" style="user-select: none; cursor: default; fill: rgb(170, 170, 170); font-size: 12.6px; font-weight: normal;"><tspan x="0" dy="0">2019-20</tspan></text></g><g transform="translate(747.8036499023438, 506.90826416015625)" style="opacity: 1;"><line y2="47.09174499511719" style="stroke: rgb(238, 238, 238); stroke-width: 1;"/><text text-anchor="end" transform="translate(0,5.6000000000000005) rotate(-90,0,0) translate(0,-3.78)" style="user-select: none; cursor: default; fill: rgb(170, 170, 170); font-size: 12.6px; font-weight: normal;"><tspan x="0" dy="0">2020-21</tspan></text></g></g><g class="fl-axis-title"/></g><g class="fl-axis fl-x-axis fl-top-axis"><g class="fl-axis-line"/><g class="fl-axis-ticks"/><g class="fl-axis-title"/></g></g><g class="fl-y-axes"><g class="fl-axis fl-y-axis fl-left-axis"><g class="fl-axis-line"><line x1="60.61012268066406" x2="60.61012268066406" y1="506.9082550048828" y2="6.75" style="shape-rendering: crispedges; stroke-linecap: square; stroke-width: 1; opacity: 1; stroke: rgb(238, 238, 238);"/></g><g class="fl-axis-ticks"><g transform="translate(60.61012268066406, 506.90826416015625)" style="opacity: 1;"><line x2="-7" style="stroke: rgb(238, 238, 238); stroke-width: 1;"/><text text-anchor="end" transform="translate(-10.5,4.158)" style="user-select: none; cursor: default; fill: rgb(170, 170, 170); font-size: 12.6px; font-weight: normal;"><tspan x="0" dy="0">0</tspan></text></g><g transform="translate(60.61012268066406, 6.75)" style="opacity: 1;"><line x2="-7" style="stroke: rgb(238, 238, 238); stroke-width: 1;"/><text text-anchor="end" transform="translate(-10.5,4.158)" style="user-select: none; cursor: default; fill: rgb(170, 170, 170); font-size: 12.6px; font-weight: normal;"><tspan x="0" dy="0">2,000,000</tspan></text></g><g transform="translate(60.61012268066406, 256.8291320800781)" style="opacity: 1;"><line x2="-7" style="stroke: rgb(238, 238, 238); stroke-width: 1;"/><text text-anchor="end" transform="translate(-10.5,4.158)" style="user-select: none; cursor: default; fill: rgb(170, 170, 170); font-size: 12.6px; font-weight: normal;"><tspan x="0" dy="0">1,000,000</tspan></text></g><g transform="translate(60.61012268066406, 306.8449401855469)" style="opacity: 1;"><line x2="-7" style="stroke: rgb(238, 238, 238); stroke-width: 1;"/><text text-anchor="end" transform="translate(-10.5,4.158)" style="user-select: none; cursor: default; fill: rgb(170, 170, 170); font-size: 12.6px; font-weight: normal;"><tspan x="0" dy="0">800,000</tspan></text></g><g transform="translate(60.61012268066406, 356.86077880859375)" style="opacity: 1;"><line x2="-7" style="stroke: rgb(238, 238, 238); stroke-width: 1;"/><text text-anchor="end" transform="translate(-10.5,4.158)" style="user-select: none; cursor: default; fill: rgb(170, 170, 170); font-size: 12.6px; font-weight: normal;"><tspan x="0" dy="0">600,000</tspan></text></g><g transform="translate(60.61012268066406, 406.8766174316406)" style="opacity: 1;"><line x2="-7" style="stroke: rgb(238, 238, 238); stroke-width: 1;"/><text text-anchor="end" transform="translate(-10.5,4.158)" style="user-select: none; cursor: default; fill: rgb(170, 170, 170); font-size: 12.6px; font-weight: normal;"><tspan x="0" dy="0">400,000</tspan></text></g><g transform="translate(60.61012268066406, 456.8924255371094)" style="opacity: 1;"><line x2="-7" style="stroke: rgb(238, 238, 238); stroke-width: 1;"/><text text-anchor="end" transform="translate(-10.5,4.158)" style="user-select: none; cursor: default; fill: rgb(170, 170, 170); font-size: 12.6px; font-weight: normal;"><tspan x="0" dy="0">200,000</tspan></text></g><g transform="translate(60.61012268066406, 56.76582717895508)" style="opacity: 1;"><line x2="-7" style="stroke: rgb(238, 238, 238); stroke-width: 1;"/><text text-anchor="end" transform="translate(-10.5,4.158)" style="user-select: none; cursor: default; fill: rgb(170, 170, 170); font-size: 12.6px; font-weight: normal;"><tspan x="0" dy="0">1,800,000</tspan></text></g><g transform="translate(60.61012268066406, 106.78165435791016)" style="opacity: 1;"><line x2="-7" style="stroke: rgb(238, 238, 238); stroke-width: 1;"/><text text-anchor="end" transform="translate(-10.5,4.158)" style="user-select: none; cursor: default; fill: rgb(170, 170, 170); font-size: 12.6px; font-weight: normal;"><tspan x="0" dy="0">1,600,000</tspan></text></g><g transform="translate(60.61012268066406, 156.79747009277344)" style="opacity: 1;"><line x2="-7" style="stroke: rgb(238, 238, 238); stroke-width: 1;"/><text text-anchor="end" transform="translate(-10.5,4.158)" style="user-select: none; cursor: default; fill: rgb(170, 170, 170); font-size: 12.6px; font-weight: normal;"><tspan x="0" dy="0">1,400,000</tspan></text></g><g transform="translate(60.61012268066406, 206.8133087158203)" style="opacity: 1;"><line x2="-7" style="stroke: rgb(238, 238, 238); stroke-width: 1;"/><text text-anchor="end" transform="translate(-10.5,4.158)" style="user-select: none; cursor: default; fill: rgb(170, 170, 170); font-size: 12.6px; font-weight: normal;"><tspan x="0" dy="0">1,200,000</tspan></text></g></g><g class="fl-axis-title"/></g><g class="fl-axis fl-y-axis fl-right-axis"><g class="fl-axis-line"/><g class="fl-axis-ticks"/><g class="fl-axis-title"/></g></g><g class="axis-highlights" style="opacity: 1;"/></g><g class="fl-data-foreground" clip-path="url(#fl-chart-layout-1-clip-path)"/></g><g class="facet-title" transform="translate(0, 0)"><rect class="facet-title-bg" height="0" fill="#eeeeee" x="60.61012268066406" clip-path="url(#facet-clip-0)"/><text class="facet-title-text" font-size="17.5" font-weight="bold" dx="0" dy="0" x="60.61012268066406" clip-path="url(#facet-clip-0)" opacity="0"/></g><clipPath class="facet-clip" id="facet-clip-0"><rect transform="translate(-10.5, -10.5)" width="792.5" height="561.5"/></clipPath></g></g><g class="annotations below"/><g id="areas"><g class="series" pointer-events="none"><path class="area" transform="translate(0,0)" fill-opacity="0.7" fill="#8a1d2e" clip-path="url(#clip-0-0)" clip-path-id="0-0" d="M84.30645192464192,506.9082550048828C100.1040047539605,506.9082550048828,115.90155758327906,506.9082550048828,131.69911041259763,506.9082550048828C147.49666324191622,506.9082550048828,163.29421607123479,506.9082550048828,179.09176890055338,506.9082550048828C194.88932172987197,506.9082550048828,210.68687455919053,506.9082550048828,226.48442738850912,506.9082550048828C242.28198021782768,506.9082550048828,258.07953304714624,506.9082550048828,273.87708587646483,506.9082550048828C289.6746387057834,506.9082550048828,305.47219153510196,506.9082550048828,321.26974436442055,506.9082550048828C337.06729719373914,506.9082550048828,352.8648500230577,506.9082550048828,368.6624028523763,506.9082550048828C384.4599556816949,506.9082550048828,400.25750851101344,506.9082550048828,416.05506134033203,506.9082550048828C431.8526141696506,506.9082550048828,447.65016699896915,506.9082550048828,463.44771982828775,506.9082550048828C479.24527265760634,506.9082550048828,495.04282548692487,506.9082550048828,510.84037831624346,506.9082550048828C526.637931145562,506.9082550048828,542.4354839748806,506.9082550048828,558.2330368041992,506.9082550048828C574.0305896335177,506.9082550048828,589.8281424628364,506.9082550048828,605.6256952921549,506.9082550048828C621.4232481214735,506.9082550048828,637.2208009507921,506.9082550048828,653.0183537801107,506.9082550048828C668.8159066094292,506.9082550048828,684.6134594387479,506.9082550048828,700.4110122680664,506.9082550048828C716.208565097385,506.9082550048828,732.0061179267036,506.9082550048828,747.8036707560221,506.9082550048828L747.8036707560221,20.904728695765662C732.0061179267036,26.574960312974156,716.208565097385,32.245191930182656,700.4110122680664,45.29894726711884C684.6134594387479,58.352702604055025,668.8159066094292,83.35548873218536,653.0183537801107,99.22726071738279C637.2208009507921,115.09903270258026,621.4232481214735,126.8765508921623,605.6256952921549,140.52957917830352C589.8281424628364,154.18260746444471,574.0305896335177,169.11866671423718,558.2330368041992,181.14543043423C542.4354839748806,193.17219415422284,526.637931145562,203.10542045832898,510.84037831624346,212.69016149826047C495.04282548692487,222.27490253819195,479.24527265760634,229.98571731603846,463.44771982828775,238.65387667381893C447.65016699896915,247.3220360315994,431.8526141696506,255.6190362843117,416.05506134033203,264.69911764494327C400.25750851101344,273.7791990055748,384.4599556816949,284.088002479335,368.6624028523763,293.1343648376083C352.8648500230577,302.1807271958816,337.06729719373914,308.67532381697464,321.26974436442055,318.97729179458315C305.47219153510196,329.27925977219166,289.6746387057834,344.379746048317,273.87708587646483,354.94617270325926C258.07953304714624,365.51259935820156,242.28198021782768,374.2287739084625,226.48442738850912,382.375851724237C210.68687455919053,390.52292954001155,194.88932172987197,398.3734551904228,179.09176890055338,403.8286395979065C163.29421607123479,409.28382400539016,147.49666324191622,411.5819261475738,131.69911041259763,415.1069581691391C115.90155758327906,418.6319901907043,100.1040047539605,421.8054109590011,84.30645192464192,424.9788317272979Z"/></g></g><g id="lines"><g class="series"><clipPath id="clip-0-0"><rect width="710.8898773193359" x="60.61012268066406" y="3.9499999999999997" height="505.7582550048828"/></clipPath><path class="line" opacity="1" pointer-events="none" fill="none" stroke="#8a1d2e" stroke-width="2.8000000000000003" transform="translate(0,0)" clip-path="url(#clip-0-0)" clip-path-id="0-0" d="M84.30645192464192,424.9788317272979C100.1040047539605,421.8054109590011,115.90155758327906,418.6319901907043,131.69911041259763,415.1069581691391C147.49666324191622,411.5819261475738,163.29421607123479,409.28382400539016,179.09176890055338,403.8286395979065C194.88932172987197,398.3734551904228,210.68687455919053,390.52292954001155,226.48442738850912,382.375851724237C242.28198021782768,374.2287739084625,258.07953304714624,365.51259935820156,273.87708587646483,354.94617270325926C289.6746387057834,344.379746048317,305.47219153510196,329.27925977219166,321.26974436442055,318.97729179458315C337.06729719373914,308.67532381697464,352.8648500230577,302.1807271958816,368.6624028523763,293.1343648376083C384.4599556816949,284.088002479335,400.25750851101344,273.7791990055748,416.05506134033203,264.69911764494327C431.8526141696506,255.6190362843117,447.65016699896915,247.3220360315994,463.44771982828775,238.65387667381893C479.24527265760634,229.98571731603846,495.04282548692487,222.27490253819195,510.84037831624346,212.69016149826047C526.637931145562,203.10542045832898,542.4354839748806,193.17219415422284,558.2330368041992,181.14543043423C574.0305896335177,169.11866671423718,589.8281424628364,154.18260746444471,605.6256952921549,140.52957917830352C621.4232481214735,126.8765508921623,637.2208009507921,115.09903270258026,653.0183537801107,99.22726071738279C668.8159066094292,83.35548873218536,684.6134594387479,58.352702604055025,700.4110122680664,45.29894726711884C716.208565097385,32.245191930182656,732.0061179267036,26.574960312974156,747.8036707560221,20.904728695765662"/></g></g><g id="data-points"><g class="series" transform="translate(0,0)" clip-path="url(#facet-clip0)"><path class="data-point" visibility="visible" fill="#ffffff" stroke="#8a1d2e" stroke-width="2.8000000000000003" data-type="point" transform="translate(0, 0)" d="M80.80645192464192,424.9788317272979A3.5,3.5,0,1,1,87.80645192464192,424.9788317272979A3.5,3.5,0,1,1,80.80645192464192,424.9788317272979Z" opacity="1" id="point-0-0"/><path class="data-point" visibility="visible" fill="#ffffff" stroke="#8a1d2e" stroke-width="2.8000000000000003" data-type="point" transform="translate(0, 0)" d="M128.19911041259763,415.1069581691391A3.5,3.5,0,1,1,135.19911041259763,415.1069581691391A3.5,3.5,0,1,1,128.19911041259763,415.1069581691391Z" opacity="1" id="point-0-1"/><path class="data-point" visibility="visible" fill="#ffffff" stroke="#8a1d2e" stroke-width="2.8000000000000003" data-type="point" transform="translate(0, 0)" d="M175.59176890055338,403.8286395979065A3.5,3.5,0,1,1,182.59176890055338,403.8286395979065A3.5,3.5,0,1,1,175.59176890055338,403.8286395979065Z" opacity="1" id="point-0-2"/><path class="data-point" visibility="visible" fill="#ffffff" stroke="#8a1d2e" stroke-width="2.8000000000000003" data-type="point" transform="translate(0, 0)" d="M222.98442738850912,382.375851724237A3.5,3.5,0,1,1,229.98442738850912,382.375851724237A3.5,3.5,0,1,1,222.98442738850912,382.375851724237Z" opacity="1" id="point-0-3"/><path class="data-point" visibility="visible" fill="#ffffff" stroke="#8a1d2e" stroke-width="2.8000000000000003" data-type="point" transform="translate(0, 0)" d="M270.37708587646483,354.94617270325926A3.5,3.5,0,1,1,277.37708587646483,354.94617270325926A3.5,3.5,0,1,1,270.37708587646483,354.94617270325926Z" opacity="1" id="point-0-4"/><path class="data-point" visibility="visible" fill="#ffffff" stroke="#8a1d2e" stroke-width="2.8000000000000003" data-type="point" transform="translate(0, 0)" d="M317.76974436442055,318.97729179458315A3.5,3.5,0,1,1,324.76974436442055,318.97729179458315A3.5,3.5,0,1,1,317.76974436442055,318.97729179458315Z" opacity="1" id="point-0-5"/><path class="data-point" visibility="visible" fill="#ffffff" stroke="#8a1d2e" stroke-width="2.8000000000000003" data-type="point" transform="translate(0, 0)" d="M365.1624028523763,293.1343648376083A3.5,3.5,0,1,1,372.1624028523763,293.1343648376083A3.5,3.5,0,1,1,365.1624028523763,293.1343648376083Z" opacity="1" id="point-0-6"/><path class="data-point" visibility="visible" fill="#ffffff" stroke="#8a1d2e" stroke-width="2.8000000000000003" data-type="point" transform="translate(0, 0)" d="M412.55506134033203,264.69911764494327A3.5,3.5,0,1,1,419.55506134033203,264.69911764494327A3.5,3.5,0,1,1,412.55506134033203,264.69911764494327Z" opacity="1" id="point-0-7"/><path class="data-point" visibility="visible" fill="#ffffff" stroke="#8a1d2e" stroke-width="2.8000000000000003" data-type="point" transform="translate(0, 0)" d="M459.94771982828775,238.65387667381893A3.5,3.5,0,1,1,466.94771982828775,238.65387667381893A3.5,3.5,0,1,1,459.94771982828775,238.65387667381893Z" opacity="1" id="point-0-8"/><path class="data-point" visibility="visible" fill="#ffffff" stroke="#8a1d2e" stroke-width="2.8000000000000003" data-type="point" transform="translate(0, 0)" d="M507.34037831624346,212.69016149826047A3.5,3.5,0,1,1,514.3403783162435,212.69016149826047A3.5,3.5,0,1,1,507.34037831624346,212.69016149826047Z" opacity="1" id="point-0-9"/><path class="data-point" visibility="visible" fill="#ffffff" stroke="#8a1d2e" stroke-width="2.8000000000000003" data-type="point" transform="translate(0, 0)" d="M554.7330368041992,181.14543043423A3.5,3.5,0,1,1,561.7330368041992,181.14543043423A3.5,3.5,0,1,1,554.7330368041992,181.14543043423Z" opacity="1" id="point-0-10"/><path class="data-point" visibility="visible" fill="#ffffff" stroke="#8a1d2e" stroke-width="2.8000000000000003" data-type="point" transform="translate(0, 0)" d="M602.1256952921549,140.52957917830352A3.5,3.5,0,1,1,609.1256952921549,140.52957917830352A3.5,3.5,0,1,1,602.1256952921549,140.52957917830352Z" opacity="1" id="point-0-11"/><path class="data-point" visibility="visible" fill="#ffffff" stroke="#8a1d2e" stroke-width="2.8000000000000003" data-type="point" transform="translate(0, 0)" d="M649.5183537801107,99.22726071738279A3.5,3.5,0,1,1,656.5183537801107,99.22726071738279A3.5,3.5,0,1,1,649.5183537801107,99.22726071738279Z" opacity="1" id="point-0-12"/><path class="data-point" visibility="visible" fill="#ffffff" stroke="#8a1d2e" stroke-width="2.8000000000000003" data-type="point" transform="translate(0, 0)" d="M696.9110122680664,45.29894726711884A3.5,3.5,0,1,1,703.9110122680664,45.29894726711884A3.5,3.5,0,1,1,696.9110122680664,45.29894726711884Z" opacity="1" id="point-0-13"/><path class="data-point" visibility="visible" fill="#ffffff" stroke="#8a1d2e" stroke-width="2.8000000000000003" data-type="point" transform="translate(0, 0)" d="M744.3036707560221,20.904728695765662A3.5,3.5,0,1,1,751.3036707560221,20.904728695765662A3.5,3.5,0,1,1,744.3036707560221,20.904728695765662Z" opacity="1" id="point-0-14"/></g></g><g id="lines-secondary"/><g id="data-point-labels"><g class="series" transform="translate(0,0)" clip-path="url(#facet-clip0)"/></g><g id="stack-labels"/><g class="annotations above"/></svg>