<svg xmlns="http://www.w3.org/2000/svg" id="graphic" fill="currentColor" font-family="Source Sans Pro" width="775" height="554"><g class="facets"><g class="facet" transform="translate(0,0)" opacity="1"><g class="fl-chart"><rect class="fl-chart-debug-rectangle" x="0" y="0" style="stroke-width: 1px; fill: none; display: none; stroke: red;" width="775" height="554"/><clipPath class="fl-data-clip-path" id="fl-chart-layout-1-clip-path"><rect x="23.024383544921875" y="6.75" width="748.4756164550781" height="500.1582550048828"/></clipPath><clipPath class="fl-grid-clip-path" id="fl-chart-layout-1-grid-clip-path"><rect x="22.024383544921875" y="5.75" width="750.4756164550781" height="502.1582550048828"/></clipPath><g class="fl-chart-background"><rect class="fl-chart-fill" x="23.024383544921875" y="6.75" width="748.4756164550781" height="500.1582550048828" fill="none"/><image class="fl-chart-image" x="23.024383544921875" y="6.75" width="748.4756164550781" height="500.1582550048828" preserveAspectRatio="none"/><rect class="fl-chart-interaction" x="23.024383544921875" y="6.75" width="748.4756164550781" height="500.1582550048828" style="opacity: 0;"/></g><g class="fl-data-background" clip-path="url(#fl-chart-layout-1-clip-path)"/><g class="fl-gridlines" clip-path="url(#fl-chart-layout-1-grid-clip-path)" style="pointer-events: none;"><g class="fl-gridlines-vertical"/><g class="fl-gridlines-horizontal"><line x1="23.024383544921875" x2="771.5" y1="506.9082550048828" y2="506.9082550048828" style="shape-rendering: crispedges; opacity: 1; stroke: rgb(238, 238, 238); stroke-width: 1;"/><line x1="23.024383544921875" x2="771.5" y1="471.18266536167687" y2="471.18266536167687" style="shape-rendering: crispedges; opacity: 1; stroke: rgb(238, 238, 238); stroke-width: 1;"/><line x1="23.024383544921875" x2="771.5" y1="435.457075718471" y2="435.457075718471" style="shape-rendering: crispedges; opacity: 1; stroke: rgb(238, 238, 238); stroke-width: 1;"/><line x1="23.024383544921875" x2="771.5" y1="399.731486075265" y2="399.731486075265" style="shape-rendering: crispedges; opacity: 1; stroke: rgb(238, 238, 238); stroke-width: 1;"/><line x1="23.024383544921875" x2="771.5" y1="364.00589643205916" y2="364.00589643205916" style="shape-rendering: crispedges; opacity: 1; stroke: rgb(238, 238, 238); stroke-width: 1;"/><line x1="23.024383544921875" x2="771.5" y1="328.2803067888532" y2="328.2803067888532" style="shape-rendering: crispedges; opacity: 1; stroke: rgb(238, 238, 238); stroke-width: 1;"/><line x1="23.024383544921875" x2="771.5" y1="292.5547171456473" y2="292.5547171456473" style="shape-rendering: crispedges; opacity: 1; stroke: rgb(238, 238, 238); stroke-width: 1;"/><line x1="23.024383544921875" x2="771.5" y1="256.8291275024414" y2="256.8291275024414" style="shape-rendering: crispedges; opacity: 1; stroke: rgb(238, 238, 238); stroke-width: 1;"/><line x1="23.024383544921875" x2="771.5" y1="221.1035378592355" y2="221.1035378592355" style="shape-rendering: crispedges; opacity: 1; stroke: rgb(238, 238, 238); stroke-width: 1;"/><line x1="23.024383544921875" x2="771.5" y1="185.37794821602955" y2="185.37794821602955" style="shape-rendering: crispedges; opacity: 1; stroke: rgb(238, 238, 238); stroke-width: 1;"/><line x1="23.024383544921875" x2="771.5" y1="149.65235857282366" y2="149.65235857282366" style="shape-rendering: crispedges; opacity: 1; stroke: rgb(238, 238, 238); stroke-width: 1;"/><line x1="23.024383544921875" x2="771.5" y1="113.92676892961775" y2="113.92676892961775" style="shape-rendering: crispedges; opacity: 1; stroke: rgb(238, 238, 238); stroke-width: 1;"/><line x1="23.024383544921875" x2="771.5" y1="78.20117928641186" y2="78.20117928641186" style="shape-rendering: crispedges; opacity: 1; stroke: rgb(238, 238, 238); stroke-width: 1;"/><line x1="23.024383544921875" x2="771.5" y1="42.4755896432059" y2="42.4755896432059" style="shape-rendering: crispedges; opacity: 1; stroke: rgb(238, 238, 238); stroke-width: 1;"/><line x1="23.024383544921875" x2="771.5" y1="6.75" y2="6.75" style="shape-rendering: crispedges; opacity: 1; stroke: rgb(238, 238, 238); stroke-width: 1;"/></g></g><g class="fl-axes"><g class="fl-x-axes"><g class="fl-axis fl-x-axis fl-bottom-axis"><g class="fl-axis-line"/><g class="fl-axis-ticks"><g transform="translate(47.97357076009115,506.9082550048828)" style="opacity: 1;"><line y2="47.09174499511719" style="stroke: rgb(238, 238, 238); stroke-width: 1;"/><text text-anchor="end" transform="translate(0,5.6000000000000005) rotate(-90,0,0) translate(0,-3.78)" style="user-select: none; cursor: default; fill: rgb(170, 170, 170); font-size: 12.6px; font-weight: normal;"><tspan x="0" dy="0">2006-07</tspan></text></g><g transform="translate(97.8719482421875, 506.90826416015625)" style="opacity: 1;"><line y2="47.09174499511719" style="stroke: rgb(238, 238, 238); stroke-width: 1;"/><text text-anchor="end" transform="translate(0,5.6000000000000005) rotate(-90,0,0) translate(0,-3.78)" style="user-select: none; cursor: default; fill: rgb(170, 170, 170); font-size: 12.6px; font-weight: normal;"><tspan x="0" dy="0">2007-08</tspan></text></g><g transform="translate(147.77032470703125, 506.90826416015625)" style="opacity: 1;"><line y2="47.09174499511719" style="stroke: rgb(238, 238, 238); stroke-width: 1;"/><text text-anchor="end" transform="translate(0,5.6000000000000005) rotate(-90,0,0) translate(0,-3.78)" style="user-select: none; cursor: default; fill: rgb(170, 170, 170); font-size: 12.6px; font-weight: normal;"><tspan x="0" dy="0">2008-09</tspan></text></g><g transform="translate(197.668701171875, 506.90826416015625)" style="opacity: 1;"><line y2="47.09174499511719" style="stroke: rgb(238, 238, 238); stroke-width: 1;"/><text text-anchor="end" transform="translate(0,5.6000000000000005) rotate(-90,0,0) translate(0,-3.78)" style="user-select: none; cursor: default; fill: rgb(170, 170, 170); font-size: 12.6px; font-weight: normal;"><tspan x="0" dy="0">2009-10</tspan></text></g><g transform="translate(247.5670623779297, 506.90826416015625)" style="opacity: 1;"><line y2="47.09174499511719" style="stroke: rgb(238, 238, 238); stroke-width: 1;"/><text text-anchor="end" transform="translate(0,5.6000000000000005) rotate(-90,0,0) translate(0,-3.78)" style="user-select: none; cursor: default; fill: rgb(170, 170, 170); font-size: 12.6px; font-weight: normal;"><tspan x="0" dy="0">2010-11</tspan></text></g><g transform="translate(297.4654541015625, 506.90826416015625)" style="opacity: 1;"><line y2="47.09174499511719" style="stroke: rgb(238, 238, 238); stroke-width: 1;"/><text text-anchor="end" transform="translate(0,5.6000000000000005) rotate(-90,0,0) translate(0,-3.78)" style="user-select: none; cursor: default; fill: rgb(170, 170, 170); font-size: 12.6px; font-weight: normal;"><tspan x="0" dy="0">2011-12</tspan></text></g><g transform="translate(347.36383056640625, 506.90826416015625)" style="opacity: 1;"><line y2="47.09174499511719" style="stroke: rgb(238, 238, 238); stroke-width: 1;"/><text text-anchor="end" transform="translate(0,5.6000000000000005) rotate(-90,0,0) translate(0,-3.78)" style="user-select: none; cursor: default; fill: rgb(170, 170, 170); font-size: 12.6px; font-weight: normal;"><tspan x="0" dy="0">2012-13</tspan></text></g><g transform="translate(397.2621765136719, 506.90826416015625)" style="opacity: 1;"><line y2="47.09174499511719" style="stroke: rgb(238, 238, 238); stroke-width: 1;"/><text text-anchor="end" transform="translate(0,5.6000000000000005) rotate(-90,0,0) translate(0,-3.78)" style="user-select: none; cursor: default; fill: rgb(170, 170, 170); font-size: 12.6px; font-weight: normal;"><tspan x="0" dy="0">2013-14</tspan></text></g><g transform="translate(447.1605529785156, 506.90826416015625)" style="opacity: 1;"><line y2="47.09174499511719" style="stroke: rgb(238, 238, 238); stroke-width: 1;"/><text text-anchor="end" transform="translate(0,5.6000000000000005) rotate(-90,0,0) translate(0,-3.78)" style="user-select: none; cursor: default; fill: rgb(170, 170, 170); font-size: 12.6px; font-weight: normal;"><tspan x="0" dy="0">2014-15</tspan></text></g><g transform="translate(497.0589294433594, 506.90826416015625)" style="opacity: 1;"><line y2="47.09174499511719" style="stroke: rgb(238, 238, 238); stroke-width: 1;"/><text text-anchor="end" transform="translate(0,5.6000000000000005) rotate(-90,0,0) translate(0,-3.78)" style="user-select: none; cursor: default; fill: rgb(170, 170, 170); font-size: 12.6px; font-weight: normal;"><tspan x="0" dy="0">2015-16</tspan></text></g><g transform="translate(546.9573364257812, 506.90826416015625)" style="opacity: 1;"><line y2="47.09174499511719" style="stroke: rgb(238, 238, 238); stroke-width: 1;"/><text text-anchor="end" transform="translate(0,5.6000000000000005) rotate(-90,0,0) translate(0,-3.78)" style="user-select: none; cursor: default; fill: rgb(170, 170, 170); font-size: 12.6px; font-weight: normal;"><tspan x="0" dy="0">2016-17</tspan></text></g><g transform="translate(596.855712890625, 506.90826416015625)" style="opacity: 1;"><line y2="47.09174499511719" style="stroke: rgb(238, 238, 238); stroke-width: 1;"/><text text-anchor="end" transform="translate(0,5.6000000000000005) rotate(-90,0,0) translate(0,-3.78)" style="user-select: none; cursor: default; fill: rgb(170, 170, 170); font-size: 12.6px; font-weight: normal;"><tspan x="0" dy="0">2017-18</tspan></text></g><g transform="translate(646.7540893554688, 506.90826416015625)" style="opacity: 1;"><line y2="47.09174499511719" style="stroke: rgb(238, 238, 238); stroke-width: 1;"/><text text-anchor="end" transform="translate(0,5.6000000000000005) rotate(-90,0,0) translate(0,-3.78)" style="user-select: none; cursor: default; fill: rgb(170, 170, 170); font-size: 12.6px; font-weight: normal;"><tspan x="0" dy="0">2018-19</tspan></text></g><g transform="translate(696.6524658203125, 506.90826416015625)" style="opacity: 1;"><line y2="47.09174499511719" style="stroke: rgb(238, 238, 238); stroke-width: 1;"/><text text-anchor="end" transform="translate(0,5.6000000000000005) rotate(-90,0,0) translate(0,-3.78)" style="user-select: none; cursor: default; fill: rgb(170, 170, 170); font-size: 12.6px; font-weight: normal;"><tspan x="0" dy="0">2019-20</tspan></text></g><g transform="translate(746.5508422851562, 506.90826416015625)" style="opacity: 1;"><line y2="47.09174499511719" style="stroke: rgb(238, 238, 238); stroke-width: 1;"/><text text-anchor="end" transform="translate(0,5.6000000000000005) rotate(-90,0,0) translate(0,-3.78)" style="user-select: none; cursor: default; fill: rgb(170, 170, 170); font-size: 12.6px; font-weight: normal;"><tspan x="0" dy="0">2020-21</tspan></text></g></g><g class="fl-axis-title"/></g><g class="fl-axis fl-x-axis fl-top-axis"><g class="fl-axis-line"/><g class="fl-axis-ticks"/><g class="fl-axis-title"/></g></g><g class="fl-y-axes"><g class="fl-axis fl-y-axis fl-left-axis"><g class="fl-axis-line"><line x1="23.024383544921875" x2="23.024383544921875" y1="506.9082550048828" y2="6.75" style="shape-rendering: crispedges; stroke-linecap: square; stroke-width: 1; opacity: 1; stroke: rgb(238, 238, 238);"/></g><g class="fl-axis-ticks"><g transform="translate(23.024383544921875, 506.90826416015625)" style="opacity: 1;"><line x2="-7" style="stroke: rgb(238, 238, 238); stroke-width: 1;"/><text text-anchor="end" transform="translate(-10.5,4.158)" style="user-select: none; cursor: default; fill: rgb(170, 170, 170); font-size: 12.6px; font-weight: normal;"><tspan x="0" dy="0">0</tspan></text></g><g transform="translate(23.024383544921875, 6.75)" style="opacity: 1;"><line x2="-7" style="stroke: rgb(238, 238, 238); stroke-width: 1;"/><text text-anchor="end" transform="translate(-10.5,4.158)" style="user-select: none; cursor: default; fill: rgb(170, 170, 170); font-size: 12.6px; font-weight: normal;"><tspan x="0" dy="0">70</tspan></text></g><g transform="translate(23.024383544921875, 78.20117950439453)" style="opacity: 1;"><line x2="-7" style="stroke: rgb(238, 238, 238); stroke-width: 1;"/><text text-anchor="end" transform="translate(-10.5,4.158)" style="user-select: none; cursor: default; fill: rgb(170, 170, 170); font-size: 12.6px; font-weight: normal;"><tspan x="0" dy="0">60</tspan></text></g><g transform="translate(23.024383544921875, 149.65235900878906)" style="opacity: 1;"><line x2="-7" style="stroke: rgb(238, 238, 238); stroke-width: 1;"/><text text-anchor="end" transform="translate(-10.5,4.158)" style="user-select: none; cursor: default; fill: rgb(170, 170, 170); font-size: 12.6px; font-weight: normal;"><tspan x="0" dy="0">50</tspan></text></g><g transform="translate(23.024383544921875, 221.10353088378906)" style="opacity: 1;"><line x2="-7" style="stroke: rgb(238, 238, 238); stroke-width: 1;"/><text text-anchor="end" transform="translate(-10.5,4.158)" style="user-select: none; cursor: default; fill: rgb(170, 170, 170); font-size: 12.6px; font-weight: normal;"><tspan x="0" dy="0">40</tspan></text></g><g transform="translate(23.024383544921875, 292.5547180175781)" style="opacity: 1;"><line x2="-7" style="stroke: rgb(238, 238, 238); stroke-width: 1;"/><text text-anchor="end" transform="translate(-10.5,4.158)" style="user-select: none; cursor: default; fill: rgb(170, 170, 170); font-size: 12.6px; font-weight: normal;"><tspan x="0" dy="0">30</tspan></text></g><g transform="translate(23.024383544921875, 364.0058898925781)" style="opacity: 1;"><line x2="-7" style="stroke: rgb(238, 238, 238); stroke-width: 1;"/><text text-anchor="end" transform="translate(-10.5,4.158)" style="user-select: none; cursor: default; fill: rgb(170, 170, 170); font-size: 12.6px; font-weight: normal;"><tspan x="0" dy="0">20</tspan></text></g><g transform="translate(23.024383544921875, 435.4570617675781)" style="opacity: 1;"><line x2="-7" style="stroke: rgb(238, 238, 238); stroke-width: 1;"/><text text-anchor="end" transform="translate(-10.5,4.158)" style="user-select: none; cursor: default; fill: rgb(170, 170, 170); font-size: 12.6px; font-weight: normal;"><tspan x="0" dy="0">10</tspan></text></g><g transform="translate(23.024383544921875, 471.18267822265625)" style="opacity: 1;"><line x2="-7" style="stroke: rgb(238, 238, 238); stroke-width: 1;"/><text text-anchor="end" transform="translate(-10.5,4.158)" style="user-select: none; cursor: default; fill: rgb(170, 170, 170); font-size: 12.6px; font-weight: normal;"><tspan x="0" dy="0">5</tspan></text></g><g transform="translate(23.024383544921875, 42.475589752197266)" style="opacity: 1;"><line x2="-7" style="stroke: rgb(238, 238, 238); stroke-width: 1;"/><text text-anchor="end" transform="translate(-10.5,4.158)" style="user-select: none; cursor: default; fill: rgb(170, 170, 170); font-size: 12.6px; font-weight: normal;"><tspan x="0" dy="0">65</tspan></text></g><g transform="translate(23.024383544921875, 113.92676544189453)" style="opacity: 1;"><line x2="-7" style="stroke: rgb(238, 238, 238); stroke-width: 1;"/><text text-anchor="end" transform="translate(-10.5,4.158)" style="user-select: none; cursor: default; fill: rgb(170, 170, 170); font-size: 12.6px; font-weight: normal;"><tspan x="0" dy="0">55</tspan></text></g><g transform="translate(23.024383544921875, 185.37794494628906)" style="opacity: 1;"><line x2="-7" style="stroke: rgb(238, 238, 238); stroke-width: 1;"/><text text-anchor="end" transform="translate(-10.5,4.158)" style="user-select: none; cursor: default; fill: rgb(170, 170, 170); font-size: 12.6px; font-weight: normal;"><tspan x="0" dy="0">45</tspan></text></g><g transform="translate(23.024383544921875, 256.8291320800781)" style="opacity: 1;"><line x2="-7" style="stroke: rgb(238, 238, 238); stroke-width: 1;"/><text text-anchor="end" transform="translate(-10.5,4.158)" style="user-select: none; cursor: default; fill: rgb(170, 170, 170); font-size: 12.6px; font-weight: normal;"><tspan x="0" dy="0">35</tspan></text></g><g transform="translate(23.024383544921875, 328.2803039550781)" style="opacity: 1;"><line x2="-7" style="stroke: rgb(238, 238, 238); stroke-width: 1;"/><text text-anchor="end" transform="translate(-10.5,4.158)" style="user-select: none; cursor: default; fill: rgb(170, 170, 170); font-size: 12.6px; font-weight: normal;"><tspan x="0" dy="0">25</tspan></text></g><g transform="translate(23.024383544921875, 399.7314758300781)" style="opacity: 1;"><line x2="-7" style="stroke: rgb(238, 238, 238); stroke-width: 1;"/><text text-anchor="end" transform="translate(-10.5,4.158)" style="user-select: none; cursor: default; fill: rgb(170, 170, 170); font-size: 12.6px; font-weight: normal;"><tspan x="0" dy="0">15</tspan></text></g></g><g class="fl-axis-title"/></g><g class="fl-axis fl-y-axis fl-right-axis"><g class="fl-axis-line"/><g class="fl-axis-ticks"/><g class="fl-axis-title"/></g></g><g class="axis-highlights" style="opacity: 1;"/></g><g class="fl-data-foreground" clip-path="url(#fl-chart-layout-1-clip-path)"/></g><g class="facet-title" transform="translate(0, 0)"><rect class="facet-title-bg" height="0" fill="#eeeeee" x="23.024383544921875" clip-path="url(#facet-clip-0)"/><text class="facet-title-text" font-size="17.5" font-weight="bold" dx="0" dy="0" x="23.024383544921875" clip-path="url(#facet-clip-0)" opacity="0"/></g><clipPath class="facet-clip" id="facet-clip-0"><rect transform="translate(-10.5, -10.5)" width="792.5" height="561.5"/></clipPath></g></g><g class="annotations below"/><g id="areas"><g class="series" pointer-events="none"><path class="area" transform="translate(0,0)" fill-opacity="0.7" fill="#8a1d2e" clip-path="url(#clip-0-0)" d="M47.97357076009115,506.9082550048828C64.60636223687067,506.9082550048828,81.23915371365018,506.9082550048828,97.8719451904297,506.9082550048828C114.50473666720922,506.9082550048828,131.13752814398873,506.9082550048828,147.77031962076825,506.9082550048828C164.40311109754776,506.9082550048828,181.03590257432725,506.9082550048828,197.66869405110677,506.9082550048828C214.30148552788629,506.9082550048828,230.9342770046658,506.9082550048828,247.56706848144532,506.9082550048828C264.1998599582248,506.9082550048828,280.8326514350043,506.9082550048828,297.46544291178384,506.9082550048828C314.09823438856336,506.9082550048828,330.7310258653429,506.9082550048828,347.3638173421224,506.9082550048828C363.9966088189019,506.9082550048828,380.6294002956814,506.9082550048828,397.26219177246094,506.9082550048828C413.89498324924045,506.9082550048828,430.52777472601997,506.9082550048828,447.1605662027995,506.9082550048828C463.793357679579,506.9082550048828,480.4261491563585,506.9082550048828,497.05894063313804,506.9082550048828C513.6917321099176,506.9082550048828,530.3245235866971,506.9082550048828,546.9573150634766,506.9082550048828C563.5901065402561,506.9082550048828,580.2228980170356,506.9082550048828,596.8556894938151,506.9082550048828C613.4884809705947,506.9082550048828,630.121272447374,506.9082550048828,646.7540639241536,506.9082550048828C663.3868554009331,506.9082550048828,680.0196468777127,506.9082550048828,696.6524383544922,506.9082550048828C713.2852298312717,506.9082550048828,729.9180213080512,506.9082550048828,746.5508127848307,506.9082550048828L746.5508127848307,32.258071005248986C729.9180213080512,46.36372464937484,713.2852298312717,60.46937829350069,696.6524383544922,80.55906820286341C680.0196468777127,100.64875811222623,663.3868554009331,152.79621046142574,646.7540639241536,152.79621046142574C630.121272447374,152.79621046142574,613.4884809705947,119.64286327253065,596.8556894938151,119.64286327253065C580.2228980170356,119.64286327253065,563.5901065402561,341.9989332118443,546.9573150634766,341.9989332118443C530.3245235866971,341.9989332118443,513.6917321099176,244.46807348589218,497.05894063313804,244.46807348589218C480.4261491563585,244.46807348589218,463.793357679579,304.96340528172084,447.1605662027995,338.35492306823727C430.52777472601997,371.7464408547537,413.89498324924045,416.72495821555003,397.26219177246094,444.81718020499096C380.6294002956814,472.9094021944319,363.9966088189019,506.9082550048828,347.3638173421224,506.9082550048828C330.7310258653429,506.9082550048828,314.09823438856336,506.9082550048828,297.46544291178384,506.9082550048828C280.8326514350043,506.9082550048828,264.1998599582248,425.4181850287301,247.56706848144532,389.79977215445376C230.9342770046658,354.18135928017745,214.30148552788629,293.197777759225,197.66869405110677,293.197777759225C181.03590257432725,293.197777759225,164.40311109754776,506.9082550048828,147.77031962076825,506.9082550048828C131.13752814398873,506.9082550048828,114.50473666720922,506.9082550048828,97.8719451904297,506.9082550048828C81.23915371365018,506.9082550048828,64.60636223687067,506.9082550048828,47.97357076009115,506.9082550048828Z" clip-path-id="0-0"/></g></g><g id="lines"><g class="series"><clipPath id="clip-0-0"><rect width="748.4756164550781" x="23.024383544921875" y="3.9499999999999997" height="505.7582550048828"/></clipPath><path class="line" opacity="1" pointer-events="none" fill="none" stroke="#8a1d2e" stroke-width="2.8000000000000003" transform="translate(0,0)" clip-path="url(#clip-0-0)" clip-path-id="0-0" d="M47.97357076009115,506.9082550048828C64.60636223687067,506.9082550048828,81.23915371365018,506.9082550048828,97.8719451904297,506.9082550048828C114.50473666720922,506.9082550048828,131.13752814398873,506.9082550048828,147.77031962076825,506.9082550048828C164.40311109754776,506.9082550048828,181.03590257432725,293.197777759225,197.66869405110677,293.197777759225C214.30148552788629,293.197777759225,230.9342770046658,354.18135928017745,247.56706848144532,389.79977215445376C264.1998599582248,425.4181850287301,280.8326514350043,506.9082550048828,297.46544291178384,506.9082550048828C314.09823438856336,506.9082550048828,330.7310258653429,506.9082550048828,347.3638173421224,506.9082550048828C363.9966088189019,506.9082550048828,380.6294002956814,472.9094021944319,397.26219177246094,444.81718020499096C413.89498324924045,416.72495821555003,430.52777472601997,371.7464408547537,447.1605662027995,338.35492306823727C463.793357679579,304.96340528172084,480.4261491563585,244.46807348589218,497.05894063313804,244.46807348589218C513.6917321099176,244.46807348589218,530.3245235866971,341.9989332118443,546.9573150634766,341.9989332118443C563.5901065402561,341.9989332118443,580.2228980170356,119.64286327253065,596.8556894938151,119.64286327253065C613.4884809705947,119.64286327253065,630.121272447374,152.79621046142574,646.7540639241536,152.79621046142574C663.3868554009331,152.79621046142574,680.0196468777127,100.64875811222623,696.6524383544922,80.55906820286341C713.2852298312717,60.46937829350069,729.9180213080512,46.36372464937484,746.5508127848307,32.258071005248986"/></g></g><g id="data-points"><g class="series" transform="translate(0,0)" clip-path="url(#facet-clip-0)"><path class="data-point" visibility="visible" fill="#ffffff" stroke="#8a1d2e" stroke-width="2.8000000000000003" data-type="point" transform="translate(0, 0)" d="M44.47357076009115,506.9082550048828A3.5,3.5,0,1,1,51.47357076009115,506.9082550048828A3.5,3.5,0,1,1,44.47357076009115,506.9082550048828Z" opacity="1" id="point-0-0"/><path class="data-point" visibility="visible" fill="#ffffff" stroke="#8a1d2e" stroke-width="2.8000000000000003" data-type="point" transform="translate(0, 0)" d="M94.3719451904297,506.9082550048828A3.5,3.5,0,1,1,101.3719451904297,506.9082550048828A3.5,3.5,0,1,1,94.3719451904297,506.9082550048828Z" opacity="1" id="point-0-1"/><path class="data-point" visibility="visible" fill="#ffffff" stroke="#8a1d2e" stroke-width="2.8000000000000003" data-type="point" transform="translate(0, 0)" d="M144.27031962076825,506.9082550048828A3.5,3.5,0,1,1,151.27031962076825,506.9082550048828A3.5,3.5,0,1,1,144.27031962076825,506.9082550048828Z" opacity="1" id="point-0-2"/><path class="data-point" visibility="visible" fill="#ffffff" stroke="#8a1d2e" stroke-width="2.8000000000000003" data-type="point" transform="translate(0, 0)" d="M194.16869405110677,293.197777759225A3.5,3.5,0,1,1,201.16869405110677,293.197777759225A3.5,3.5,0,1,1,194.16869405110677,293.197777759225Z" opacity="1" id="point-0-3"/><path class="data-point" visibility="visible" fill="#ffffff" stroke="#8a1d2e" stroke-width="2.8000000000000003" data-type="point" transform="translate(0, 0)" d="M244.06706848144532,389.79977215445376A3.5,3.5,0,1,1,251.06706848144532,389.79977215445376A3.5,3.5,0,1,1,244.06706848144532,389.79977215445376Z" opacity="1" id="point-0-4"/><path class="data-point" visibility="visible" fill="#ffffff" stroke="#8a1d2e" stroke-width="2.8000000000000003" data-type="point" transform="translate(0, 0)" d="M293.96544291178384,506.9082550048828A3.5,3.5,0,1,1,300.96544291178384,506.9082550048828A3.5,3.5,0,1,1,293.96544291178384,506.9082550048828Z" opacity="1" id="point-0-5"/><path class="data-point" visibility="visible" fill="#ffffff" stroke="#8a1d2e" stroke-width="2.8000000000000003" data-type="point" transform="translate(0, 0)" d="M343.8638173421224,506.9082550048828A3.5,3.5,0,1,1,350.8638173421224,506.9082550048828A3.5,3.5,0,1,1,343.8638173421224,506.9082550048828Z" opacity="1" id="point-0-6"/><path class="data-point" visibility="visible" fill="#ffffff" stroke="#8a1d2e" stroke-width="2.8000000000000003" data-type="point" transform="translate(0, 0)" d="M393.76219177246094,444.81718020499096A3.5,3.5,0,1,1,400.76219177246094,444.81718020499096A3.5,3.5,0,1,1,393.76219177246094,444.81718020499096Z" opacity="1" id="point-0-7"/><path class="data-point" visibility="visible" fill="#ffffff" stroke="#8a1d2e" stroke-width="2.8000000000000003" data-type="point" transform="translate(0, 0)" d="M443.6605662027995,338.35492306823727A3.5,3.5,0,1,1,450.6605662027995,338.35492306823727A3.5,3.5,0,1,1,443.6605662027995,338.35492306823727Z" opacity="1" id="point-0-8"/><path class="data-point" visibility="visible" fill="#ffffff" stroke="#8a1d2e" stroke-width="2.8000000000000003" data-type="point" transform="translate(0, 0)" d="M493.55894063313804,244.46807348589218A3.5,3.5,0,1,1,500.55894063313804,244.46807348589218A3.5,3.5,0,1,1,493.55894063313804,244.46807348589218Z" opacity="1" id="point-0-9"/><path class="data-point" visibility="visible" fill="#ffffff" stroke="#8a1d2e" stroke-width="2.8000000000000003" data-type="point" transform="translate(0, 0)" d="M543.4573150634766,341.9989332118443A3.5,3.5,0,1,1,550.4573150634766,341.9989332118443A3.5,3.5,0,1,1,543.4573150634766,341.9989332118443Z" opacity="1" id="point-0-10"/><path class="data-point" visibility="visible" fill="#ffffff" stroke="#8a1d2e" stroke-width="2.8000000000000003" data-type="point" transform="translate(0, 0)" d="M593.3556894938151,119.64286327253065A3.5,3.5,0,1,1,600.3556894938151,119.64286327253065A3.5,3.5,0,1,1,593.3556894938151,119.64286327253065Z" opacity="1" id="point-0-11"/><path class="data-point" visibility="visible" fill="#ffffff" stroke="#8a1d2e" stroke-width="2.8000000000000003" data-type="point" transform="translate(0, 0)" d="M643.2540639241536,152.79621046142574A3.5,3.5,0,1,1,650.2540639241536,152.79621046142574A3.5,3.5,0,1,1,643.2540639241536,152.79621046142574Z" opacity="1" id="point-0-12"/><path class="data-point" visibility="visible" fill="#ffffff" stroke="#8a1d2e" stroke-width="2.8000000000000003" data-type="point" transform="translate(0, 0)" d="M693.1524383544922,80.55906820286341A3.5,3.5,0,1,1,700.1524383544922,80.55906820286341A3.5,3.5,0,1,1,693.1524383544922,80.55906820286341Z" opacity="1" id="point-0-13"/><path class="data-point" visibility="visible" fill="#ffffff" stroke="#8a1d2e" stroke-width="2.8000000000000003" data-type="point" transform="translate(0, 0)" d="M743.0508127848307,32.258071005248986A3.5,3.5,0,1,1,750.0508127848307,32.258071005248986A3.5,3.5,0,1,1,743.0508127848307,32.258071005248986Z" opacity="1" id="point-0-14"/></g></g><g id="lines-secondary"/><g id="data-point-labels"><g class="series" transform="translate(0,0)" clip-path="url(#facet-clip-0)"/></g><g id="stack-labels"/><g class="annotations above"/></svg>