<svg xmlns="http://www.w3.org/2000/svg" id="graphic" fill="currentColor" font-family="Source Sans Pro" width="775" height="554"><g class="facets"><g class="facet" transform="translate(0,0)" opacity="1"><g class="fl-chart"><rect class="fl-chart-debug-rectangle" x="0" y="0" style="stroke-width: 1px; fill: none; display: none; stroke: red;" width="775" height="554"/><clipPath class="fl-data-clip-path" id="fl-chart-layout-1-clip-path"><rect x="23.024383544921875" y="6.75" width="748.4756164550781" height="487.6338714599609"/></clipPath><clipPath class="fl-grid-clip-path" id="fl-chart-layout-1-grid-clip-path"><rect x="22.024383544921875" y="5.75" width="750.4756164550781" height="489.6338714599609"/></clipPath><g class="fl-chart-background"><rect class="fl-chart-fill" x="23.024383544921875" y="6.75" width="748.4756164550781" height="487.6338714599609" fill="none"/><image class="fl-chart-image" x="23.024383544921875" y="6.75" width="748.4756164550781" height="487.6338714599609" preserveAspectRatio="none"/><rect class="fl-chart-interaction" x="23.024383544921875" y="6.75" width="748.4756164550781" height="487.6338714599609" style="opacity: 0;"/></g><g class="fl-data-background" clip-path="url(#fl-chart-layout-1-clip-path)"/><g class="fl-gridlines" clip-path="url(#fl-chart-layout-1-grid-clip-path)" style="pointer-events: none;"><g class="fl-gridlines-vertical"/><g class="fl-gridlines-horizontal"><line x1="23.024383544921875" x2="771.5" y1="494.3838714599609" y2="494.3838714599609" style="shape-rendering: crispedges; opacity: 1; stroke: rgb(238, 238, 238); stroke-width: 1;"/><line x1="23.024383544921875" x2="771.5" y1="456.81577658631215" y2="456.81577658631215" style="shape-rendering: crispedges; opacity: 1; stroke: rgb(238, 238, 238); stroke-width: 1;"/><line x1="23.024383544921875" x2="771.5" y1="419.24768171266345" y2="419.24768171266345" style="shape-rendering: crispedges; opacity: 1; stroke: rgb(238, 238, 238); stroke-width: 1;"/><line x1="23.024383544921875" x2="771.5" y1="381.67958683901463" y2="381.67958683901463" style="shape-rendering: crispedges; opacity: 1; stroke: rgb(238, 238, 238); stroke-width: 1;"/><line x1="23.024383544921875" x2="771.5" y1="344.1114919653659" y2="344.1114919653659" style="shape-rendering: crispedges; opacity: 1; stroke: rgb(238, 238, 238); stroke-width: 1;"/><line x1="23.024383544921875" x2="771.5" y1="306.5433970917171" y2="306.5433970917171" style="shape-rendering: crispedges; opacity: 1; stroke: rgb(238, 238, 238); stroke-width: 1;"/><line x1="23.024383544921875" x2="771.5" y1="268.97530221806835" y2="268.97530221806835" style="shape-rendering: crispedges; opacity: 1; stroke: rgb(238, 238, 238); stroke-width: 1;"/><line x1="23.024383544921875" x2="771.5" y1="231.40720734441956" y2="231.40720734441956" style="shape-rendering: crispedges; opacity: 1; stroke: rgb(238, 238, 238); stroke-width: 1;"/><line x1="23.024383544921875" x2="771.5" y1="193.83911247077086" y2="193.83911247077086" style="shape-rendering: crispedges; opacity: 1; stroke: rgb(238, 238, 238); stroke-width: 1;"/><line x1="23.024383544921875" x2="771.5" y1="156.27101759712207" y2="156.27101759712207" style="shape-rendering: crispedges; opacity: 1; stroke: rgb(238, 238, 238); stroke-width: 1;"/><line x1="23.024383544921875" x2="771.5" y1="118.70292272347334" y2="118.70292272347334" style="shape-rendering: crispedges; opacity: 1; stroke: rgb(238, 238, 238); stroke-width: 1;"/><line x1="23.024383544921875" x2="771.5" y1="81.13482784982457" y2="81.13482784982457" style="shape-rendering: crispedges; opacity: 1; stroke: rgb(238, 238, 238); stroke-width: 1;"/><line x1="23.024383544921875" x2="771.5" y1="43.566732976175786" y2="43.566732976175786" style="shape-rendering: crispedges; opacity: 1; stroke: rgb(238, 238, 238); stroke-width: 1;"/></g></g><g class="fl-axes"><g class="fl-x-axes"><g class="fl-axis fl-x-axis fl-bottom-axis"><g class="fl-axis-line"/><g class="fl-axis-ticks"><g transform="translate(47.97357177734375, 494.3838806152344)" style="opacity: 1;"><line y2="59.616128540039064" style="stroke: rgb(238, 238, 238); stroke-width: 1;"/><text text-anchor="end" transform="translate(0,5.6000000000000005) rotate(-90,0,0) translate(0,-3.78)" style="user-select: none; cursor: default; fill: rgb(170, 170, 170); font-size: 12.6px; font-weight: normal;"><tspan x="0" dy="0">2006-2007</tspan></text></g><g transform="translate(97.8719482421875, 494.3838806152344)" style="opacity: 1;"><line y2="59.616128540039064" style="stroke: rgb(238, 238, 238); stroke-width: 1;"/><text text-anchor="end" transform="translate(0,5.6000000000000005) rotate(-90,0,0) translate(0,-3.78)" style="user-select: none; cursor: default; fill: rgb(170, 170, 170); font-size: 12.6px; font-weight: normal;"><tspan x="0" dy="0">2007-2008</tspan></text></g><g transform="translate(147.77032470703125, 494.3838806152344)" style="opacity: 1;"><line y2="59.616128540039064" style="stroke: rgb(238, 238, 238); stroke-width: 1;"/><text text-anchor="end" transform="translate(0,5.6000000000000005) rotate(-90,0,0) translate(0,-3.78)" style="user-select: none; cursor: default; fill: rgb(170, 170, 170); font-size: 12.6px; font-weight: normal;"><tspan x="0" dy="0">2008-2009</tspan></text></g><g transform="translate(197.668701171875, 494.3838806152344)" style="opacity: 1;"><line y2="59.616128540039064" style="stroke: rgb(238, 238, 238); stroke-width: 1;"/><text text-anchor="end" transform="translate(0,5.6000000000000005) rotate(-90,0,0) translate(0,-3.78)" style="user-select: none; cursor: default; fill: rgb(170, 170, 170); font-size: 12.6px; font-weight: normal;"><tspan x="0" dy="0">2009-2010</tspan></text></g><g transform="translate(247.5670623779297, 494.3838806152344)" style="opacity: 1;"><line y2="59.616128540039064" style="stroke: rgb(238, 238, 238); stroke-width: 1;"/><text text-anchor="end" transform="translate(0,5.6000000000000005) rotate(-90,0,0) translate(0,-3.78)" style="user-select: none; cursor: default; fill: rgb(170, 170, 170); font-size: 12.6px; font-weight: normal;"><tspan x="0" dy="0">2010-2011</tspan></text></g><g transform="translate(297.4654541015625, 494.3838806152344)" style="opacity: 1;"><line y2="59.616128540039064" style="stroke: rgb(238, 238, 238); stroke-width: 1;"/><text text-anchor="end" transform="translate(0,5.6000000000000005) rotate(-90,0,0) translate(0,-3.78)" style="user-select: none; cursor: default; fill: rgb(170, 170, 170); font-size: 12.6px; font-weight: normal;"><tspan x="0" dy="0">2011-2012</tspan></text></g><g transform="translate(347.36383056640625, 494.3838806152344)" style="opacity: 1;"><line y2="59.616128540039064" style="stroke: rgb(238, 238, 238); stroke-width: 1;"/><text text-anchor="end" transform="translate(0,5.6000000000000005) rotate(-90,0,0) translate(0,-3.78)" style="user-select: none; cursor: default; fill: rgb(170, 170, 170); font-size: 12.6px; font-weight: normal;"><tspan x="0" dy="0">2012-2013</tspan></text></g><g transform="translate(397.2621765136719, 494.3838806152344)" style="opacity: 1;"><line y2="59.616128540039064" style="stroke: rgb(238, 238, 238); stroke-width: 1;"/><text text-anchor="end" transform="translate(0,5.6000000000000005) rotate(-90,0,0) translate(0,-3.78)" style="user-select: none; cursor: default; fill: rgb(170, 170, 170); font-size: 12.6px; font-weight: normal;"><tspan x="0" dy="0">2013-2014</tspan></text></g><g transform="translate(447.1605529785156, 494.3838806152344)" style="opacity: 1;"><line y2="59.616128540039064" style="stroke: rgb(238, 238, 238); stroke-width: 1;"/><text text-anchor="end" transform="translate(0,5.6000000000000005) rotate(-90,0,0) translate(0,-3.78)" style="user-select: none; cursor: default; fill: rgb(170, 170, 170); font-size: 12.6px; font-weight: normal;"><tspan x="0" dy="0">2014-2015</tspan></text></g><g transform="translate(497.0589294433594, 494.3838806152344)" style="opacity: 1;"><line y2="59.616128540039064" style="stroke: rgb(238, 238, 238); stroke-width: 1;"/><text text-anchor="end" transform="translate(0,5.6000000000000005) rotate(-90,0,0) translate(0,-3.78)" style="user-select: none; cursor: default; fill: rgb(170, 170, 170); font-size: 12.6px; font-weight: normal;"><tspan x="0" dy="0">2015-2016</tspan></text></g><g transform="translate(546.9573364257812, 494.3838806152344)" style="opacity: 1;"><line y2="59.616128540039064" style="stroke: rgb(238, 238, 238); stroke-width: 1;"/><text text-anchor="end" transform="translate(0,5.6000000000000005) rotate(-90,0,0) translate(0,-3.78)" style="user-select: none; cursor: default; fill: rgb(170, 170, 170); font-size: 12.6px; font-weight: normal;"><tspan x="0" dy="0">2016-2017</tspan></text></g><g transform="translate(596.855712890625, 494.3838806152344)" style="opacity: 1;"><line y2="59.616128540039064" style="stroke: rgb(238, 238, 238); stroke-width: 1;"/><text text-anchor="end" transform="translate(0,5.6000000000000005) rotate(-90,0,0) translate(0,-3.78)" style="user-select: none; cursor: default; fill: rgb(170, 170, 170); font-size: 12.6px; font-weight: normal;"><tspan x="0" dy="0">2017-2018</tspan></text></g><g transform="translate(646.7540893554688, 494.3838806152344)" style="opacity: 1;"><line y2="59.616128540039064" style="stroke: rgb(238, 238, 238); stroke-width: 1;"/><text text-anchor="end" transform="translate(0,5.6000000000000005) rotate(-90,0,0) translate(0,-3.78)" style="user-select: none; cursor: default; fill: rgb(170, 170, 170); font-size: 12.6px; font-weight: normal;"><tspan x="0" dy="0">2018-2019</tspan></text></g><g transform="translate(696.6524658203125, 494.3838806152344)" style="opacity: 1;"><line y2="59.616128540039064" style="stroke: rgb(238, 238, 238); stroke-width: 1;"/><text text-anchor="end" transform="translate(0,5.6000000000000005) rotate(-90,0,0) translate(0,-3.78)" style="user-select: none; cursor: default; fill: rgb(170, 170, 170); font-size: 12.6px; font-weight: normal;"><tspan x="0" dy="0">2019-2020</tspan></text></g><g transform="translate(746.5508422851562, 494.3838806152344)" style="opacity: 1;"><line y2="59.616128540039064" style="stroke: rgb(238, 238, 238); stroke-width: 1;"/><text text-anchor="end" transform="translate(0,5.6000000000000005) rotate(-90,0,0) translate(0,-3.78)" style="user-select: none; cursor: default; fill: rgb(170, 170, 170); font-size: 12.6px; font-weight: normal;"><tspan x="0" dy="0">2020-2021</tspan></text></g></g><g class="fl-axis-title"/></g><g class="fl-axis fl-x-axis fl-top-axis"><g class="fl-axis-line"/><g class="fl-axis-ticks"/><g class="fl-axis-title"/></g></g><g class="fl-y-axes"><g class="fl-axis fl-y-axis fl-left-axis"><g class="fl-axis-line"><line x1="23.024383544921875" x2="23.024383544921875" y1="494.3838714599609" y2="6.75" style="shape-rendering: crispedges; stroke-linecap: square; stroke-width: 1; opacity: 1; stroke: rgb(238, 238, 238);"/></g><g class="fl-axis-ticks"><g transform="translate(23.024383544921875, 193.839111328125)" style="opacity: 1;"><line x2="-7" style="stroke: rgb(238, 238, 238); stroke-width: 1;"/><text text-anchor="end" transform="translate(-10.5,4.158)" style="user-select: none; cursor: default; fill: rgb(170, 170, 170); font-size: 12.6px; font-weight: normal;"><tspan x="0" dy="0">20</tspan></text></g><g transform="translate(23.024383544921875, 43.566734313964844)" style="opacity: 1;"><line x2="-7" style="stroke: rgb(238, 238, 238); stroke-width: 1;"/><text text-anchor="end" transform="translate(-10.5,4.158)" style="user-select: none; cursor: default; fill: rgb(170, 170, 170); font-size: 12.6px; font-weight: normal;"><tspan x="0" dy="0">24</tspan></text></g><g transform="translate(23.024383544921875, 81.13482666015625)" style="opacity: 1;"><line x2="-7" style="stroke: rgb(238, 238, 238); stroke-width: 1;"/><text text-anchor="end" transform="translate(-10.5,4.158)" style="user-select: none; cursor: default; fill: rgb(170, 170, 170); font-size: 12.6px; font-weight: normal;"><tspan x="0" dy="0">23</tspan></text></g><g transform="translate(23.024383544921875, 118.70291900634766)" style="opacity: 1;"><line x2="-7" style="stroke: rgb(238, 238, 238); stroke-width: 1;"/><text text-anchor="end" transform="translate(-10.5,4.158)" style="user-select: none; cursor: default; fill: rgb(170, 170, 170); font-size: 12.6px; font-weight: normal;"><tspan x="0" dy="0">22</tspan></text></g><g transform="translate(23.024383544921875, 156.27101135253906)" style="opacity: 1;"><line x2="-7" style="stroke: rgb(238, 238, 238); stroke-width: 1;"/><text text-anchor="end" transform="translate(-10.5,4.158)" style="user-select: none; cursor: default; fill: rgb(170, 170, 170); font-size: 12.6px; font-weight: normal;"><tspan x="0" dy="0">21</tspan></text></g><g transform="translate(23.024383544921875, 231.40721130371094)" style="opacity: 1;"><line x2="-7" style="stroke: rgb(238, 238, 238); stroke-width: 1;"/><text text-anchor="end" transform="translate(-10.5,4.158)" style="user-select: none; cursor: default; fill: rgb(170, 170, 170); font-size: 12.6px; font-weight: normal;"><tspan x="0" dy="0">19</tspan></text></g><g transform="translate(23.024383544921875, 268.9753112792969)" style="opacity: 1;"><line x2="-7" style="stroke: rgb(238, 238, 238); stroke-width: 1;"/><text text-anchor="end" transform="translate(-10.5,4.158)" style="user-select: none; cursor: default; fill: rgb(170, 170, 170); font-size: 12.6px; font-weight: normal;"><tspan x="0" dy="0">18</tspan></text></g><g transform="translate(23.024383544921875, 306.54339599609375)" style="opacity: 1;"><line x2="-7" style="stroke: rgb(238, 238, 238); stroke-width: 1;"/><text text-anchor="end" transform="translate(-10.5,4.158)" style="user-select: none; cursor: default; fill: rgb(170, 170, 170); font-size: 12.6px; font-weight: normal;"><tspan x="0" dy="0">17</tspan></text></g><g transform="translate(23.024383544921875, 344.1114807128906)" style="opacity: 1;"><line x2="-7" style="stroke: rgb(238, 238, 238); stroke-width: 1;"/><text text-anchor="end" transform="translate(-10.5,4.158)" style="user-select: none; cursor: default; fill: rgb(170, 170, 170); font-size: 12.6px; font-weight: normal;"><tspan x="0" dy="0">16</tspan></text></g><g transform="translate(23.024383544921875, 381.6795959472656)" style="opacity: 1;"><line x2="-7" style="stroke: rgb(238, 238, 238); stroke-width: 1;"/><text text-anchor="end" transform="translate(-10.5,4.158)" style="user-select: none; cursor: default; fill: rgb(170, 170, 170); font-size: 12.6px; font-weight: normal;"><tspan x="0" dy="0">15</tspan></text></g><g transform="translate(23.024383544921875, 419.2476806640625)" style="opacity: 1;"><line x2="-7" style="stroke: rgb(238, 238, 238); stroke-width: 1;"/><text text-anchor="end" transform="translate(-10.5,4.158)" style="user-select: none; cursor: default; fill: rgb(170, 170, 170); font-size: 12.6px; font-weight: normal;"><tspan x="0" dy="0">14</tspan></text></g><g transform="translate(23.024383544921875, 456.8157653808594)" style="opacity: 1;"><line x2="-7" style="stroke: rgb(238, 238, 238); stroke-width: 1;"/><text text-anchor="end" transform="translate(-10.5,4.158)" style="user-select: none; cursor: default; fill: rgb(170, 170, 170); font-size: 12.6px; font-weight: normal;"><tspan x="0" dy="0">13</tspan></text></g><g transform="translate(23.024383544921875, 494.3838806152344)" style="opacity: 1;"><line x2="-7" style="stroke: rgb(238, 238, 238); stroke-width: 1;"/><text text-anchor="end" transform="translate(-10.5,4.158)" style="user-select: none; cursor: default; fill: rgb(170, 170, 170); font-size: 12.6px; font-weight: normal;"><tspan x="0" dy="0">12</tspan></text></g></g><g class="fl-axis-title"/></g><g class="fl-axis fl-y-axis fl-right-axis"><g class="fl-axis-line"/><g class="fl-axis-ticks"/><g class="fl-axis-title"/></g></g><g class="axis-highlights" style="opacity: 1;"/></g><g class="fl-data-foreground" clip-path="url(#fl-chart-layout-1-clip-path)"/></g><g class="facet-title" transform="translate(0, 0)"><rect class="facet-title-bg" height="0" fill="#eeeeee" x="23.024383544921875" clip-path="url(#facet-clip-0)"/><text class="facet-title-text" font-size="17.5" font-weight="bold" dx="0" dy="0" x="23.024383544921875" clip-path="url(#facet-clip-0)" opacity="0"/></g><clipPath class="facet-clip" id="facet-clip-0"><rect transform="translate(-10.5, -10.5)" width="792.5" height="561.5"/></clipPath></g></g><g class="annotations below"/><g id="areas"><g class="series" pointer-events="none"><path class="area" transform="translate(0,0)" fill-opacity="0.7" fill="#8a1d2e" clip-path="url(#clip-0-0)" d="M47.97357076009115,945.201009943746C64.60636223687067,945.201009943746,81.23915371365018,945.201009943746,97.8719451904297,945.201009943746C114.50473666720922,945.201009943746,131.13752814398873,945.201009943746,147.77031962076825,945.201009943746C164.40311109754776,945.201009943746,181.03590257432725,945.201009943746,197.66869405110677,945.201009943746C214.30148552788629,945.201009943746,230.9342770046658,945.201009943746,247.56706848144532,945.201009943746C264.1998599582248,945.201009943746,280.8326514350043,945.201009943746,297.46544291178384,945.201009943746C314.09823438856336,945.201009943746,330.7310258653429,945.201009943746,347.3638173421224,945.201009943746C363.9966088189019,945.201009943746,380.6294002956814,945.201009943746,397.26219177246094,945.201009943746C413.89498324924045,945.201009943746,430.52777472601997,945.201009943746,447.1605662027995,945.201009943746C463.793357679579,945.201009943746,480.4261491563585,945.201009943746,497.05894063313804,945.201009943746C513.6917321099176,945.201009943746,530.3245235866971,945.201009943746,546.9573150634766,945.201009943746C563.5901065402561,945.201009943746,580.2228980170356,945.201009943746,596.8556894938151,945.201009943746C613.4884809705947,945.201009943746,630.121272447374,945.201009943746,646.7540639241536,945.201009943746C663.3868554009331,945.201009943746,680.0196468777127,945.201009943746,696.6524383544922,945.201009943746C713.2852298312717,945.201009943746,729.9180213080512,945.201009943746,746.5508127848307,945.201009943746L746.5508127848307,6.75C729.9180213080512,68.17383511841567,713.2852298312717,129.59767023683136,696.6524383544922,137.11128921156111C680.0196468777127,144.6249081862909,663.3868554009331,147.88080974200716,646.7540639241536,148.3817176736558C630.121272447374,148.88262560530444,613.4884809705947,148.6321716394801,596.8556894938151,149.13307957112875C580.2228980170356,149.6339875027774,563.5901065402561,153.64125095596665,546.9573150634766,162.65759372564244C530.3245235866971,171.67393649531823,513.6917321099176,245.8709238707743,497.05894063313804,271.2293879104872C480.4261491563585,296.5878519502001,463.793357679579,302.09783919833535,447.1605662027995,314.80837796391984C430.52777472601997,327.5189167295043,413.89498324924045,339.7911610548963,397.26219177246094,347.49262050399426C380.6294002956814,355.1940799530922,363.9966088189019,357.57339262842333,347.3638173421224,361.0171346585078C330.7310258653429,364.4608766885923,314.09823438856336,368.15507268450114,297.46544291178384,368.15507268450114C280.8326514350043,368.15507268450114,264.1998599582248,334.1559468238489,247.56706848144532,318.56518745128466C230.9342770046658,302.9744280787204,214.30148552788629,282.3745893896696,197.66869405110677,274.61051644911555C181.03590257432725,266.8464435085615,164.40311109754776,262.9644070382845,147.77031962076825,262.9644070382845C131.13752814398873,262.9644070382845,114.50473666720922,283.6268592187914,97.8719451904297,283.6268592187914C81.23915371365018,283.6268592187914,64.60636223687067,269.3509831668049,47.97357076009115,255.0751071148183Z" clip-path-id="0-0"/></g></g><g id="lines"><g class="series"><clipPath id="clip-0-0"><rect width="748.4756164550781" x="23.024383544921875" y="3.9499999999999997" height="493.23387145996094"/></clipPath><path class="line" opacity="1" pointer-events="none" fill="none" stroke="#8a1d2e" stroke-width="2.8000000000000003" transform="translate(0,0)" clip-path="url(#clip-0-0)" clip-path-id="0-0" d="M47.97357076009115,255.0751071148183C64.60636223687067,269.3509831668049,81.23915371365018,283.6268592187914,97.8719451904297,283.6268592187914C114.50473666720922,283.6268592187914,131.13752814398873,262.9644070382845,147.77031962076825,262.9644070382845C164.40311109754776,262.9644070382845,181.03590257432725,266.8464435085615,197.66869405110677,274.61051644911555C214.30148552788629,282.3745893896696,230.9342770046658,302.9744280787204,247.56706848144532,318.56518745128466C264.1998599582248,334.1559468238489,280.8326514350043,368.15507268450114,297.46544291178384,368.15507268450114C314.09823438856336,368.15507268450114,330.7310258653429,364.4608766885923,347.3638173421224,361.0171346585078C363.9966088189019,357.57339262842333,380.6294002956814,355.1940799530922,397.26219177246094,347.49262050399426C413.89498324924045,339.7911610548963,430.52777472601997,327.5189167295043,447.1605662027995,314.80837796391984C463.793357679579,302.09783919833535,480.4261491563585,296.5878519502001,497.05894063313804,271.2293879104872C513.6917321099176,245.8709238707743,530.3245235866971,171.67393649531823,546.9573150634766,162.65759372564244C563.5901065402561,153.64125095596665,580.2228980170356,149.6339875027774,596.8556894938151,149.13307957112875C613.4884809705947,148.6321716394801,630.121272447374,148.88262560530444,646.7540639241536,148.3817176736558C663.3868554009331,147.88080974200716,680.0196468777127,144.6249081862909,696.6524383544922,137.11128921156111C713.2852298312717,129.59767023683136,729.9180213080512,68.17383511841567,746.5508127848307,6.75"/></g></g><g id="data-points"><g class="series" transform="translate(0,0)" clip-path="url(#facet-clip-0)"><path class="data-point" visibility="visible" fill="#ffffff" stroke="#8a1d2e" stroke-width="2.8000000000000003" data-type="point" transform="translate(0, 0)" d="M44.47357076009115,255.0751071148183A3.5,3.5,0,1,1,51.47357076009115,255.0751071148183A3.5,3.5,0,1,1,44.47357076009115,255.0751071148183Z" opacity="1" id="point-0-0"/><path class="data-point" visibility="visible" fill="#ffffff" stroke="#8a1d2e" stroke-width="2.8000000000000003" data-type="point" transform="translate(0, 0)" d="M94.3719451904297,283.6268592187914A3.5,3.5,0,1,1,101.3719451904297,283.6268592187914A3.5,3.5,0,1,1,94.3719451904297,283.6268592187914Z" opacity="1" id="point-0-1"/><path class="data-point" visibility="visible" fill="#ffffff" stroke="#8a1d2e" stroke-width="2.8000000000000003" data-type="point" transform="translate(0, 0)" d="M144.27031962076825,262.9644070382845A3.5,3.5,0,1,1,151.27031962076825,262.9644070382845A3.5,3.5,0,1,1,144.27031962076825,262.9644070382845Z" opacity="1" id="point-0-2"/><path class="data-point" visibility="visible" fill="#ffffff" stroke="#8a1d2e" stroke-width="2.8000000000000003" data-type="point" transform="translate(0, 0)" d="M194.16869405110677,274.61051644911555A3.5,3.5,0,1,1,201.16869405110677,274.61051644911555A3.5,3.5,0,1,1,194.16869405110677,274.61051644911555Z" opacity="1" id="point-0-3"/><path class="data-point" visibility="visible" fill="#ffffff" stroke="#8a1d2e" stroke-width="2.8000000000000003" data-type="point" transform="translate(0, 0)" d="M244.06706848144532,318.56518745128466A3.5,3.5,0,1,1,251.06706848144532,318.56518745128466A3.5,3.5,0,1,1,244.06706848144532,318.56518745128466Z" opacity="1" id="point-0-4"/><path class="data-point" visibility="visible" fill="#ffffff" stroke="#8a1d2e" stroke-width="2.8000000000000003" data-type="point" transform="translate(0, 0)" d="M293.96544291178384,368.15507268450114A3.5,3.5,0,1,1,300.96544291178384,368.15507268450114A3.5,3.5,0,1,1,293.96544291178384,368.15507268450114Z" opacity="1" id="point-0-5"/><path class="data-point" visibility="visible" fill="#ffffff" stroke="#8a1d2e" stroke-width="2.8000000000000003" data-type="point" transform="translate(0, 0)" d="M343.8638173421224,361.0171346585078A3.5,3.5,0,1,1,350.8638173421224,361.0171346585078A3.5,3.5,0,1,1,343.8638173421224,361.0171346585078Z" opacity="1" id="point-0-6"/><path class="data-point" visibility="visible" fill="#ffffff" stroke="#8a1d2e" stroke-width="2.8000000000000003" data-type="point" transform="translate(0, 0)" d="M393.76219177246094,347.49262050399426A3.5,3.5,0,1,1,400.76219177246094,347.49262050399426A3.5,3.5,0,1,1,393.76219177246094,347.49262050399426Z" opacity="1" id="point-0-7"/><path class="data-point" visibility="visible" fill="#ffffff" stroke="#8a1d2e" stroke-width="2.8000000000000003" data-type="point" transform="translate(0, 0)" d="M443.6605662027995,314.80837796391984A3.5,3.5,0,1,1,450.6605662027995,314.80837796391984A3.5,3.5,0,1,1,443.6605662027995,314.80837796391984Z" opacity="1" id="point-0-8"/><path class="data-point" visibility="visible" fill="#ffffff" stroke="#8a1d2e" stroke-width="2.8000000000000003" data-type="point" transform="translate(0, 0)" d="M493.55894063313804,271.2293879104872A3.5,3.5,0,1,1,500.55894063313804,271.2293879104872A3.5,3.5,0,1,1,493.55894063313804,271.2293879104872Z" opacity="1" id="point-0-9"/><path class="data-point" visibility="visible" fill="#ffffff" stroke="#8a1d2e" stroke-width="2.8000000000000003" data-type="point" transform="translate(0, 0)" d="M543.4573150634766,162.65759372564244A3.5,3.5,0,1,1,550.4573150634766,162.65759372564244A3.5,3.5,0,1,1,543.4573150634766,162.65759372564244Z" opacity="1" id="point-0-10"/><path class="data-point" visibility="visible" fill="#ffffff" stroke="#8a1d2e" stroke-width="2.8000000000000003" data-type="point" transform="translate(0, 0)" d="M593.3556894938151,149.13307957112875A3.5,3.5,0,1,1,600.3556894938151,149.13307957112875A3.5,3.5,0,1,1,593.3556894938151,149.13307957112875Z" opacity="1" id="point-0-11"/><path class="data-point" visibility="visible" fill="#ffffff" stroke="#8a1d2e" stroke-width="2.8000000000000003" data-type="point" transform="translate(0, 0)" d="M643.2540639241536,148.3817176736558A3.5,3.5,0,1,1,650.2540639241536,148.3817176736558A3.5,3.5,0,1,1,643.2540639241536,148.3817176736558Z" opacity="1" id="point-0-12"/><path class="data-point" visibility="visible" fill="#ffffff" stroke="#8a1d2e" stroke-width="2.8000000000000003" data-type="point" transform="translate(0, 0)" d="M693.1524383544922,137.11128921156111A3.5,3.5,0,1,1,700.1524383544922,137.11128921156111A3.5,3.5,0,1,1,693.1524383544922,137.11128921156111Z" opacity="1" id="point-0-13"/><path class="data-point" visibility="visible" fill="#ffffff" stroke="#8a1d2e" stroke-width="2.8000000000000003" data-type="point" transform="translate(0, 0)" d="M743.0508127848307,6.75A3.5,3.5,0,1,1,750.0508127848307,6.75A3.5,3.5,0,1,1,743.0508127848307,6.75Z" opacity="1" id="point-0-14"/></g></g><g id="lines-secondary"/><g id="data-point-labels"><g class="series" transform="translate(0,0)" clip-path="url(#facet-clip-0)"/></g><g id="stack-labels"/><g class="annotations above"/></svg>